<svg xmlns="http://www.w3.org/2000/svg" xmlns:xlink="http://www.w3.org/1999/xlink" width="178.051" height="177.2" data-name="Group 560"><defs><radialGradient id="a" cx=".127" cy=".537" r=".968" gradientTransform="matrix(.516 -.783 .65 .622 56.119 36.985)" gradientUnits="objectBoundingBox"><stop offset="0" stop-color="#fce586"/><stop offset=".227" stop-color="#fcdb7b"/><stop offset=".616" stop-color="#fccf6f"/><stop offset="1" stop-color="#fccc6b"/></radialGradient><radialGradient xlink:href="#a" id="g" cx=".775" cy="1.208" r="3.504" gradientTransform="matrix(.551 -.298 .172 .955 40.945 18.197)"/><radialGradient xlink:href="#a" id="h" cx=".211" cy=".214" r="1.237" gradientTransform="matrix(.552 -.294 .17 .956 19.927 3.661)"/><radialGradient xlink:href="#a" id="i" cx=".773" cy="1.21" r="3.504" gradientTransform="matrix(.552 -.294 .17 .956 23.671 4.508)"/><radialGradient xlink:href="#a" id="j" cx=".211" cy=".214" r="1.237" gradientTransform="matrix(.552 -.294 .17 .956 19.933 3.673)"/><radialGradient xlink:href="#a" id="k" cx=".773" cy="1.21" r="3.504" gradientTransform="matrix(.552 -.294 .17 .956 23.678 4.522)"/><radialGradient xlink:href="#a" id="l" cx=".784" cy=".21" r=".714" gradientTransform="matrix(.516 .955 -1.653 .298 -39.385 -59.272)"/><radialGradient xlink:href="#a" id="m" cx="-.208" cy=".775" r="2.023" gradientTransform="matrix(.516 .955 -1.653 .298 -45.513 -70.726)"/><radialGradient xlink:href="#a" id="n" cx=".784" cy=".21" r=".714" gradientTransform="matrix(.516 .955 -1.653 .298 -39.889 -59.472)"/><radialGradient xlink:href="#a" id="o" cx=".773" cy="1.21" r="3.504" gradientTransform="matrix(.552 -.294 .17 .956 23.61 4.435)"/><radialGradient xlink:href="#a" id="p" cx=".784" cy=".21" r=".714" gradientTransform="matrix(.516 .955 -1.653 .298 -39.618 -59.423)"/><radialGradient xlink:href="#a" id="q" cx=".773" cy="1.21" r="3.504" gradientTransform="matrix(.552 -.294 .17 .956 23.576 4.46)"/><radialGradient xlink:href="#a" id="r" cx=".211" cy=".214" r="1.237" gradientTransform="matrix(.552 -.294 .17 .956 19.846 3.631)"/><radialGradient xlink:href="#a" id="s" cx=".773" cy="1.21" r="3.504" gradientTransform="matrix(.552 -.294 .17 .956 23.574 4.472)"/><radialGradient xlink:href="#a" id="t" cx=".784" cy=".21" r=".714" gradientTransform="matrix(.516 .955 -1.653 .298 -39.437 -59.501)"/><radialGradient xlink:href="#a" id="u" cx=".773" cy="1.21" r="3.504" gradientTransform="matrix(.552 -.294 .17 .956 23.593 4.493)"/><radialGradient xlink:href="#a" id="v" cx=".247" cy=".133" r="1.186" gradientTransform="matrix(.609 -.092 .056 .996 6.666 .644)"/><radialGradient xlink:href="#a" id="w" cx=".686" cy="1.259" r="3.36" gradientTransform="matrix(.609 -.092 .056 .996 8.001 .802)"/><radialGradient xlink:href="#a" id="x" cx=".784" cy=".21" r=".714" gradientTransform="matrix(.516 .955 -1.653 .298 -43.001 -4.773)"/><radialGradient xlink:href="#a" id="y" cx=".539" cy="1.197" r="2.868" gradientTransform="matrix(.753 .215 -.166 .977 -8.227 .88)"/><radialGradient xlink:href="#a" id="z" cx=".137" cy=".499" r="1.017" gradientTransform="matrix(.526 -.727 .556 .687 51.62 28.279)"/><radialGradient xlink:href="#a" id="A" cx=".98" cy=".816" r="2.882" gradientTransform="matrix(.526 -.727 .556 .687 61.106 34.25)"/><linearGradient id="b" x1=".554" x2="-.237" y1=".572" y2="-.487" gradientUnits="objectBoundingBox"><stop offset="0" stop-color="#59bdef"/><stop offset="1" stop-color="#7bdaff"/></linearGradient><linearGradient id="c" x2="1" y1=".5" y2=".5" gradientUnits="objectBoundingBox"><stop offset="0" stop-color="#2573ba"/><stop offset="1" stop-color="#0063ad"/></linearGradient><linearGradient id="d" x2="1" y1=".5" y2=".5" gradientUnits="objectBoundingBox"><stop offset="0" stop-color="#3a9bd5"/><stop offset="1" stop-color="#2573ba"/></linearGradient><linearGradient id="e" x2="2.597" y1=".5" y2=".5" gradientUnits="objectBoundingBox"><stop offset="0" stop-color="#3a9bd5"/><stop offset=".522" stop-color="#2f87c7"/><stop offset="1" stop-color="#297bbf"/></linearGradient><linearGradient xlink:href="#b" id="f" x1="-1.774" x2="-.169" y1="3.037" y2="3.344"/><linearGradient id="B" x1="-14.277" x2="-12.848" y1="1.875" y2="2.233" gradientUnits="objectBoundingBox"><stop offset="0" stop-color="#2573ba"/><stop offset=".907" stop-color="#0364ae"/><stop offset="1" stop-color="#0063ad"/></linearGradient><linearGradient id="C" x1="-27.927" x2="-26.927" y1=".5" y2=".5" gradientUnits="objectBoundingBox"><stop offset="0" stop-color="#0063ad"/><stop offset="1" stop-color="#2573ba"/></linearGradient><linearGradient id="D" x1="-14.706" x2="-13.551" y1="1.95" y2="1.95" gradientUnits="objectBoundingBox"><stop offset="0" stop-color="#7bdaff"/><stop offset="1" stop-color="#59bdef"/></linearGradient></defs><g data-name="Group 540"><g data-name="Group 534"><path fill="#041860" d="m33.208 96.096-14.815-8.552 11.772-6.8 14.815 8.552z" data-name="Path 304" opacity=".6"/><path fill="#fff" d="m33.792 99.313-20.966-12.1 16.764-9.679 20.966 12.1zm-19.954-12.1 19.954 11.519 15.753-9.093L29.591 78.12z" data-name="Path 305"/><path fill="url(#b)" d="m306.8 182.616-14.815-8.552 11.772-6.8 14.815 8.552z" data-name="Path 306" transform="translate(-273.592 -106.297)"/><path fill="url(#c)" d="M323.345 187.746v-9.175l-11.772 6.8v9.175z" data-name="Path 307" transform="translate(-278.361 -109.049)"/><path fill="url(#d)" d="M291.99 176.251v9.175l14.815 8.552V184.8z" data-name="Path 308" transform="translate(-273.592 -108.484)"/></g><g data-name="Group 539"><g fill="#fff" data-name="Group 535"><path d="m27.507 65.621-6.413 3.7v1.986l1.9 1.1v-1.985l6.413-3.7z" data-name="Path 309"/><path d="m31.581 67.972-6.413 3.7v1.985l1.9 1.1v-1.985l6.413-3.7z" data-name="Path 310"/><path d="m35.66 70.326-6.413 3.7v1.985l1.9 1.1v-1.985l6.413-3.7z" data-name="Path 311"/></g><g data-name="Group 536"><path fill="#a9ebff" d="M27.507 65.621v.8l1.223.692.68-.393z" data-name="Path 312"/><path fill="#a9ebff" d="m21.783 70.898-.69.41 1.9 1.1v-.826z" data-name="Path 313"/><path fill="url(#c)" d="m301.967 173.414-6.413 3.7v1.986l.69-.41v-1.17l5.727-3.306z" data-name="Path 314" transform="translate(-274.46 -107.793)"/></g><g data-name="Group 537"><path fill="#a9ebff" d="M31.582 67.972v.8l1.223.692.68-.393z" data-name="Path 315"/><path fill="#a9ebff" d="m25.858 73.251-.69.41 1.9 1.1v-.826z" data-name="Path 316"/><path fill="url(#c)" d="m307.352 176.522-6.413 3.7v1.985l.69-.41v-1.171l5.727-3.306z" data-name="Path 317" transform="translate(-275.771 -108.55)"/></g><g data-name="Group 538"><path fill="#a9ebff" d="M35.66 70.326v.8l1.223.692.68-.393z" data-name="Path 318"/><path fill="#a9ebff" d="m29.937 75.603-.69.41 1.9 1.1v-.826z" data-name="Path 319"/><path fill="url(#c)" d="m312.744 179.634-6.413 3.7v1.985l.69-.41v-1.169l5.727-3.306z" data-name="Path 320" transform="translate(-277.083 -109.308)"/></g></g></g><g data-name="Group 557" transform="translate(42.211)"><path fill="#fff" d="M67.922 177.2c-17.375 0-34.747-3.817-47.974-11.455C7.085 158.318.001 148.429.001 137.9s7.084-20.418 19.946-27.843c26.45-15.272 69.494-15.273 95.948 0 12.863 7.426 19.947 17.314 19.947 27.844s-7.083 20.418-19.945 27.845C102.67 173.382 85.293 177.2 67.922 177.2zm0-78.1c-17.283 0-34.564 3.8-47.72 11.394C7.502 117.825.51 127.557.51 137.894s6.993 20.075 19.693 27.407c26.314 15.192 69.129 15.193 95.443 0 12.7-7.332 19.692-17.065 19.692-27.406s-6.994-20.074-19.693-27.405C102.483 102.9 85.2 99.101 67.919 99.101z" data-name="Path 321"/><ellipse cx="48.512" cy="28.009" fill="#13247a" data-name="Ellipse 39" opacity=".5" rx="48.512" ry="28.009" transform="translate(19.408 109.892)"/><g data-name="Group 542"><path fill="url(#e)" d="m436.337 115.763-49.667-28.7a2.11 2.11 0 0 0-2.1-.191l-3.37 1.967 2.2 1.33v116.372a7.833 7.833 0 0 0 3.27 6.249l49.092 28.368-.7 2.491 3.4-1.977a2.876 2.876 0 0 0 1.152-2.654v-117a7.832 7.832 0 0 0-3.277-6.255z" data-name="Path 322" transform="translate(-337.524 -86.672)"/><path fill="url(#f)" d="m432.49 244.14-49.667-28.7a7.833 7.833 0 0 1-3.27-6.249v-117c0-2.408 1.464-3.515 3.27-2.472l49.667 28.7a7.835 7.835 0 0 1 3.27 6.249v117c0 2.409-1.46 3.515-3.27 2.472z" data-name="Path 323" transform="translate(-337.123 -87.317)"/><path fill="#0f65b2" d="m98.637 154.432-56.208-32.476V4.787l56.208 32.476z" data-name="Path 324"/><g fill="#fff" data-name="Group 541"><path d="m89.659 156.682-50.167-28.985a6.084 6.084 0 0 1-3.04-5.268V12.239a2 2 0 0 1 3-1.732l50.167 28.985a6.084 6.084 0 0 1 3.04 5.268v110.19a2 2 0 0 1-3 1.732z" data-name="Path 325" opacity=".4"/><path d="M90.659 157.176a2.209 2.209 0 0 1-1.111-.3l-50.167-28.985a6.323 6.323 0 0 1-3.151-5.459V12.239a2.222 2.222 0 0 1 3.334-1.924l50.167 28.99a6.324 6.324 0 0 1 3.151 5.459v110.19a2.233 2.233 0 0 1-2.223 2.226zM38.453 10.457a1.786 1.786 0 0 0-1.779 1.782v110.19a5.881 5.881 0 0 0 2.929 5.076l50.169 28.987a1.78 1.78 0 0 0 2.67-1.542V44.76a5.882 5.882 0 0 0-2.929-5.076L39.342 10.698a1.779 1.779 0 0 0-.889-.241z" data-name="Path 326"/></g><path fill="#0063ad" d="m74.246 21.659-7.426-4.287a1.092 1.092 0 0 1-.457-.872c0-.336.2-.491.457-.345l7.426 4.287a1.1 1.1 0 0 1 .456.872c0 .332-.204.491-.456.345z" data-name="Path 327"/></g><path fill="#041860" d="M77.3 88.162c1.017.587 1.841-.036 1.841-1.392V46.082a4.411 4.411 0 0 0-1.841-3.518L36.61 19.072a6.939 6.939 0 0 0-.157 1.469v44.04z" data-name="Path 328" opacity=".2"/><g data-name="Group 543" transform="translate(28.353 69.901)"><path fill="#f4a856" d="m18.369 3.182.008 1.011a6.622 6.622 0 0 0-3.28-.489 16 16 0 0 0-11.978 8.135 6.679 6.679 0 0 0-.757 3.158l-.933-.309 1 1.48c.834 1.3 2.529 2.018 4.875 1.847A16 16 0 0 0 19.282 9.88c1.005-2.078.982-3.891.132-5.143z" data-name="Path 329"/><path fill="#fccc6b" d="M18.236 8.325A16 16 0 0 1 6.258 16.46c-4.6.337-6.707-2.76-4.7-6.916a16 16 0 0 1 11.978-8.135c4.608-.337 6.711 2.76 4.7 6.916z" data-name="Path 330"/><path fill="url(#a)" d="M379.439 187.843a16 16 0 0 1-11.978 8.135c-4.6.337-6.707-2.76-4.7-6.916a16 16 0 0 1 11.978-8.135c4.608-.337 6.711 2.76 4.7 6.916z" data-name="Path 331" transform="translate(-361.203 -179.518)"/><path fill="#f4a856" d="M12.79 13.071a12.554 12.554 0 0 1-5.941 2.269c-1.9.139-3.369-.4-4.133-1.527s-.726-2.688.105-4.4a13.552 13.552 0 0 1 10.128-6.878c1.9-.138 3.369.4 4.132 1.527s.725 2.687-.1 4.4a12.49 12.49 0 0 1-4.191 4.609zM7.106 4.94a12.3 12.3 0 0 0-4.128 4.544c-.8 1.658-.844 3.161-.117 4.231S5 15.3 6.837 15.166a13.357 13.357 0 0 0 9.984-6.781c.8-1.658.844-3.161.117-4.231s-2.138-1.585-3.975-1.45A12.372 12.372 0 0 0 7.105 4.94z" data-name="Path 332"/><ellipse cx="8.596" cy="4.963" fill="url(#g)" data-name="Ellipse 40" rx="8.596" ry="4.963" transform="rotate(-34.182 15.707 4.83)"/><path fill="#f4a856" d="M3.127 9.792a13.433 13.433 0 0 1 10.055-6.83 4.4 4.4 0 0 1 3.932 1.323c-.673-1.16-2.126-1.813-4.163-1.663a13.432 13.432 0 0 0-10.056 6.83c-.89 1.838-.819 3.429.011 4.482a4.393 4.393 0 0 1 .221-4.142z" data-name="Path 333"/><path fill="#fce586" d="M18.017 8.002a16 16 0 0 1-11.978 8.135c-2.2.161-3.832-.465-4.713-1.616.812 1.355 2.531 2.114 4.932 1.938a16 16 0 0 0 11.978-8.135c1.048-2.167.977-4.045.017-5.3.744 1.245.726 2.989-.236 4.978z" data-name="Path 334"/></g><path fill="#f4a856" d="M45.188 83.142a12.845 12.845 0 0 0 2.454-3.367c1.005-2.078.982-3.891.132-5.143l-1.052-1.549c-.014-.021-.034-.039-.049-.061l-.067-.1c.006.011.01.023.016.033-.875-1.17-2.507-1.813-4.73-1.65a15.266 15.266 0 0 0-7.8 3.243l8.29 8.589z" data-name="Path 335"/><g data-name="Group 546"><path fill="#fff" d="m72.027 45.922-59.055-34.1a1.176 1.176 0 0 0-1.2-.1l-.878.512s.2.03.406.057a2.357 2.357 0 0 0-.166.921V53.9a4.408 4.408 0 0 0 1.841 3.518L72.027 91.52a1.78 1.78 0 0 0 .326.148v.461l.882-.514a1.629 1.629 0 0 0 .638-1.487V49.44a4.41 4.41 0 0 0-1.846-3.518z" data-name="Path 336"/><path fill="#84e4a4" d="m71.174 92.019-59.056-34.1a4.41 4.41 0 0 1-1.841-3.518V13.716c0-1.356.825-1.979 1.841-1.391L71.174 46.42a4.412 4.412 0 0 1 1.841 3.518v40.688c0 1.356-.824 1.98-1.841 1.393z" data-name="Path 337"/><g fill="#fff" data-name="Group 544"><path d="M53.569 48.532v-5.807l1.232.71a4.087 4.087 0 0 1 .607.423 2.8 2.8 0 0 1 .462.505 2.119 2.119 0 0 1 .3.635 2.69 2.69 0 0 1 .1.769q0 1.072-.741.775a2.255 2.255 0 0 1 .665.834 2.664 2.664 0 0 1 .224 1.119q0 .827-.358 1.048t-1.053-.178zm.917-2.911.285.166c.269.155.453.194.555.12s.152-.27.152-.585a1.611 1.611 0 0 0-.051-.427.884.884 0 0 0-.168-.327 1.476 1.476 0 0 0-.263-.253 3.992 3.992 0 0 0-.384-.247l-.127-.074zm0 2.694.336.194q.41.237.567.107c.105-.086.158-.3.158-.638a1.852 1.852 0 0 0-.178-.865 1.48 1.48 0 0 0-.6-.58l-.287-.167z" data-name="Path 338"/><path d="m56.752 50.37 1.022-5.217.956.551 1.019 6.4-.852-.492-.2-1.466-.87-.5-.207 1.229zm1.168-1.364.672.389-.336-2.58z" data-name="Path 339"/><path d="M60.242 52.386v-5.808l.631.364 1.232 4v-3.29l.759.438v5.808l-.6-.347-1.244-4.175v3.46z" data-name="Path 340"/><path d="M63.617 54.334v-5.808l.917.529v2.522l.989-1.951.874.5-.962 2.043 1.062 3.823-.912-.528-.868-3.233-.182.272v2.355z" data-name="Path 341"/></g><g fill="#fff" data-name="Group 545"><path d="m26.585 57.835-11.21-6.472v-1.5l11.21 6.474z" data-name="Path 342"/><path d="M40.362 65.791 29.15 59.318v-1.5l11.21 6.472z" data-name="Path 343"/><path d="m54.141 73.746-11.21-6.472v-1.5l11.21 6.472z" data-name="Path 344"/><path d="m67.92 81.701-11.21-6.472v-1.5l11.21 6.472z" data-name="Path 345"/></g><path fill="#fff" d="M71.174 46.42 12.118 12.325c-1.017-.588-1.841.036-1.841 1.392v40.688a3.924 3.924 0 0 0 .087.757c3.142-2.272 15.918-9.3 40.322 4.168 8.885 4.9 16.314 4.254 22.33 1.045V49.938a4.412 4.412 0 0 0-1.842-3.518z" data-name="Path 346" opacity=".2"/><path fill="#fff" d="M34.757 44.351a57.389 57.389 0 0 0 20.979-6.844L12.118 12.325c-1.017-.588-1.841.036-1.841 1.392v38.939c4.354-3.434 11.801-6.671 24.48-8.305z" data-name="Path 347" opacity=".2"/></g><g data-name="Group 547"><path fill="#f4a856" d="m48.162 142.816-.564.837a6.62 6.62 0 0 0-2.428-2.259 16 16 0 0 0-14.479-.064 6.686 6.686 0 0 0-2.41 2.176l-.595-.781-.008 1.788c-.045 1.542.944 3.095 2.976 4.28a16 16 0 0 0 14.48.065c2-1.145 3.01-2.654 3.017-4.167z" data-name="Path 348"/><path fill="#fccc6b" d="M45.145 146.978a16 16 0 0 1-14.48-.064c-3.988-2.326-3.971-6.069.038-8.36a16 16 0 0 1 14.479.065c3.988 2.329 3.972 6.072-.037 8.359z" data-name="Path 349"/><path fill="url(#h)" d="M377.524 277.7a16 16 0 0 1-14.48-.064c-3.988-2.326-3.971-6.069.038-8.36a16 16 0 0 1 14.479.065c3.988 2.329 3.972 6.072-.037 8.359z" data-name="Path 350" transform="translate(-332.379 -130.722)"/><path fill="#f4a856" d="M37.969 147.815a12.553 12.553 0 0 1-6.183-1.489c-1.647-.961-2.551-2.238-2.545-3.6s.921-2.627 2.577-3.573a13.552 13.552 0 0 1 12.242.055c1.647.961 2.551 2.238 2.545 3.6s-.921 2.627-2.577 3.572a12.486 12.486 0 0 1-6.059 1.435zm-.09-9.921a12.31 12.31 0 0 0-5.975 1.414c-1.6.914-2.484 2.13-2.489 3.422s.867 2.518 2.458 3.446a13.359 13.359 0 0 0 12.07.054c1.6-.914 2.484-2.13 2.49-3.423s-.868-2.516-2.459-3.444a12.374 12.374 0 0 0-6.095-1.464z" data-name="Path 351"/><path fill="url(#i)" d="M376.894 277.333a13.434 13.434 0 0 1-12.156-.054c-3.348-1.953-3.334-5.1.031-7.018a13.434 13.434 0 0 1 12.156.054c3.348 1.953 3.334 5.095-.031 7.018z" data-name="Path 352" transform="translate(-332.907 -131.027)"/><path fill="#f4a856" d="M31.86 139.645a13.434 13.434 0 0 1 12.156.054 4.394 4.394 0 0 1 2.494 3.314c.1-1.337-.729-2.7-2.493-3.726a13.434 13.434 0 0 0-12.156-.054c-1.773 1.013-2.615 2.366-2.525 3.7a4.392 4.392 0 0 1 2.524-3.288z" data-name="Path 353"/><path fill="#fce586" d="M45.146 146.592a16 16 0 0 1-14.479-.065c-1.909-1.113-2.9-2.551-2.973-4-.1 1.577.891 3.175 2.971 4.388a16 16 0 0 0 14.48.064c2.09-1.195 3.093-2.783 3.01-4.361-.088 1.45-1.09 2.878-3.009 3.974z" data-name="Path 354"/></g><g data-name="Group 548"><path fill="#f4a856" d="m49.92 140.306-.565.838a6.617 6.617 0 0 0-2.428-2.259 16 16 0 0 0-14.48-.064 6.676 6.676 0 0 0-2.409 2.176l-.6-.781-.008 1.788c-.045 1.542.944 3.095 2.977 4.28a16 16 0 0 0 14.479.065c2-1.145 3.011-2.654 3.018-4.167z" data-name="Path 355"/><path fill="#fccc6b" d="M46.902 144.472a16 16 0 0 1-14.479-.064c-3.988-2.327-3.972-6.069.037-8.36a16 16 0 0 1 14.479.065c3.988 2.326 3.972 6.072-.037 8.359z" data-name="Path 356"/><path fill="url(#j)" d="M379.847 274.387a16 16 0 0 1-14.479-.064c-3.988-2.327-3.972-6.069.037-8.36a16 16 0 0 1 14.479.065c3.988 2.326 3.972 6.072-.037 8.359z" data-name="Path 357" transform="translate(-332.945 -129.915)"/><path fill="#f4a856" d="M39.727 145.307a12.55 12.55 0 0 1-6.182-1.489c-1.648-.961-2.551-2.238-2.546-3.6s.921-2.627 2.577-3.572a13.547 13.547 0 0 1 12.242.055c1.648.961 2.551 2.237 2.545 3.6s-.921 2.627-2.577 3.572a12.487 12.487 0 0 1-6.059 1.434zm-.09-9.921a12.305 12.305 0 0 0-5.974 1.414c-1.6.914-2.484 2.13-2.49 3.422s.867 2.517 2.459 3.446a13.358 13.358 0 0 0 12.069.054c1.6-.914 2.484-2.13 2.49-3.423s-.867-2.516-2.459-3.444a12.372 12.372 0 0 0-6.095-1.469z" data-name="Path 358"/><path fill="url(#k)" d="M379.217 274.017a13.435 13.435 0 0 1-12.155-.054c-3.348-1.953-3.335-5.1.031-7.019a13.438 13.438 0 0 1 12.156.054c3.351 1.954 3.334 5.096-.032 7.019z" data-name="Path 359" transform="translate(-333.473 -130.22)"/><path fill="#f4a856" d="M33.617 137.136a13.434 13.434 0 0 1 12.156.054 4.394 4.394 0 0 1 2.494 3.315c.1-1.337-.728-2.7-2.493-3.727a13.437 13.437 0 0 0-12.155-.054c-1.774 1.014-2.615 2.366-2.526 3.7a4.394 4.394 0 0 1 2.524-3.288z" data-name="Path 360"/><path fill="#fce586" d="M46.904 144.083a16 16 0 0 1-14.479-.065c-1.909-1.113-2.9-2.551-2.973-4-.1 1.577.891 3.175 2.972 4.388a16 16 0 0 0 14.479.064c2.09-1.195 3.093-2.784 3.01-4.361-.089 1.451-1.09 2.878-3.009 3.974z" data-name="Path 361"/></g><g data-name="Group 549" transform="translate(42.909 146.771)"><path fill="#f4a856" d="m20.507 6.003-.564.838a6.628 6.628 0 0 0-2.428-2.26 16 16 0 0 0-14.479-.064 6.667 6.667 0 0 0-2.41 2.176l-.6-.782-.008 1.788c-.046 1.542.944 3.095 2.976 4.28a16 16 0 0 0 14.479.065c2-1.145 3.011-2.654 3.018-4.167z" data-name="Path 362"/><ellipse cx="5.911" cy="10.239" fill="#fccc6b" data-name="Ellipse 41" rx="5.911" ry="10.239" transform="rotate(-89.743 5.938 5.912)"/><ellipse cx="5.911" cy="10.239" fill="url(#l)" data-name="Ellipse 42" rx="5.911" ry="10.239" transform="rotate(-89.743 5.938 5.912)"/><path fill="#f4a856" d="M10.31 11.003a12.544 12.544 0 0 1-6.182-1.489c-1.648-.961-2.551-2.238-2.545-3.6s.921-2.627 2.577-3.573a13.551 13.551 0 0 1 12.242.055c1.648.961 2.551 2.238 2.545 3.6s-.921 2.627-2.577 3.572a12.485 12.485 0 0 1-6.06 1.435zm-.09-9.921a12.308 12.308 0 0 0-5.974 1.414c-1.6.914-2.484 2.13-2.49 3.422s.867 2.518 2.459 3.446a13.358 13.358 0 0 0 12.069.054c1.6-.913 2.484-2.13 2.49-3.423s-.867-2.516-2.459-3.444a12.372 12.372 0 0 0-6.095-1.469z" data-name="Path 363"/><ellipse cx="4.963" cy="8.596" fill="url(#m)" data-name="Ellipse 43" rx="4.963" ry="8.596" transform="rotate(-89.77 6.286 4.614)"/><path fill="#f4a856" d="M4.201 2.832a13.435 13.435 0 0 1 12.156.054A4.394 4.394 0 0 1 18.851 6.2c.1-1.337-.728-2.7-2.493-3.726A13.433 13.433 0 0 0 4.203 2.42C2.43 3.433 1.588 4.786 1.677 6.12a4.394 4.394 0 0 1 2.524-3.288z" data-name="Path 364"/><path fill="#fce586" d="M17.487 9.775A16 16 0 0 1 3.008 9.71c-1.909-1.113-2.9-2.551-2.973-4-.1 1.577.892 3.175 2.972 4.388a16 16 0 0 0 14.479.064c2.09-1.195 3.093-2.783 3.01-4.361-.093 1.454-1.093 2.882-3.009 3.974z" data-name="Path 365"/></g><g data-name="Group 550" transform="translate(22.434 150.322)"><path fill="#f4a856" d="m20.504 6.003-.565.838a6.611 6.611 0 0 0-2.428-2.259 16 16 0 0 0-14.48-.065A6.678 6.678 0 0 0 .622 6.693l-.6-.782-.008 1.788c-.045 1.541.944 3.094 2.977 4.28a16 16 0 0 0 14.479.065c2-1.145 3.011-2.654 3.018-4.167z" data-name="Path 366"/><ellipse cx="5.911" cy="10.239" fill="#fccc6b" data-name="Ellipse 44" rx="5.911" ry="10.239" transform="rotate(-89.743 5.938 5.912)"/><ellipse cx="5.911" cy="10.239" fill="url(#n)" data-name="Ellipse 45" rx="5.911" ry="10.239" transform="rotate(-89.743 5.938 5.912)"/><path fill="#f4a856" d="M10.311 11.004a12.542 12.542 0 0 1-6.182-1.49c-1.648-.961-2.551-2.238-2.546-3.6s.921-2.627 2.577-3.573a13.551 13.551 0 0 1 12.242.055c1.648.961 2.551 2.238 2.545 3.6s-.921 2.627-2.577 3.573a12.5 12.5 0 0 1-6.059 1.435zm-.09-9.921a12.3 12.3 0 0 0-5.974 1.414c-1.6.913-2.484 2.129-2.49 3.422s.867 2.517 2.459 3.445a13.358 13.358 0 0 0 12.069.054c1.6-.913 2.484-2.129 2.49-3.422s-.867-2.517-2.459-3.445a12.372 12.372 0 0 0-6.095-1.468z" data-name="Path 367"/><path fill="url(#o)" d="M369.987 295.192a13.433 13.433 0 0 1-12.155-.055c-3.348-1.953-3.335-5.1.031-7.018a13.433 13.433 0 0 1 12.155.054c3.348 1.955 3.335 5.096-.031 7.019z" data-name="Path 368" transform="translate(-353.66 -285.699)"/><path fill="#f4a856" d="M4.201 2.832a13.434 13.434 0 0 1 12.156.054A4.393 4.393 0 0 1 18.851 6.2c.1-1.337-.728-2.7-2.493-3.726A13.433 13.433 0 0 0 4.203 2.42c-1.774 1.014-2.615 2.366-2.526 3.7a4.394 4.394 0 0 1 2.524-3.288z" data-name="Path 369"/><path fill="#fce586" d="M17.488 9.781a16 16 0 0 1-14.479-.064C1.1 8.603.109 7.166.036 5.717c-.1 1.577.891 3.175 2.971 4.388a16 16 0 0 0 14.479.065c2.09-1.195 3.093-2.784 3.01-4.362-.087 1.447-1.089 2.873-3.008 3.973z" data-name="Path 370"/></g><g data-name="Group 551" transform="translate(32.121 146.557)"><path fill="#f4a856" d="m20.504 6.003-.565.838a6.618 6.618 0 0 0-2.428-2.259 16 16 0 0 0-14.479-.065 6.682 6.682 0 0 0-2.41 2.176l-.6-.782-.008 1.788c-.045 1.542.944 3.095 2.977 4.28a16 16 0 0 0 14.479.064c2-1.145 3.011-2.654 3.018-4.166z" data-name="Path 371"/><ellipse cx="5.911" cy="10.239" fill="#fccc6b" data-name="Ellipse 46" rx="5.911" ry="10.239" transform="rotate(-89.743 5.938 5.912)"/><ellipse cx="5.911" cy="10.239" fill="url(#p)" data-name="Ellipse 47" rx="5.911" ry="10.239" transform="rotate(-89.743 5.938 5.912)"/><path fill="#f4a856" d="M10.31 11.005a12.55 12.55 0 0 1-6.182-1.489c-1.648-.961-2.551-2.238-2.546-3.6s.921-2.627 2.577-3.573a13.551 13.551 0 0 1 12.242.055c1.648.961 2.551 2.238 2.545 3.6s-.921 2.627-2.577 3.573a12.5 12.5 0 0 1-6.059 1.434zm-.09-9.921a12.307 12.307 0 0 0-5.974 1.414c-1.6.914-2.484 2.13-2.49 3.422s.867 2.517 2.459 3.446a13.358 13.358 0 0 0 12.069.054c1.6-.914 2.484-2.13 2.49-3.423s-.867-2.517-2.459-3.445a12.38 12.38 0 0 0-6.095-1.469z" data-name="Path 372"/><path fill="url(#q)" d="M382.792 290.215a13.433 13.433 0 0 1-12.155-.054c-3.348-1.953-3.335-5.1.031-7.018a13.433 13.433 0 0 1 12.155.054c3.348 1.954 3.335 5.095-.031 7.018z" data-name="Path 373" transform="translate(-366.465 -280.722)"/><path fill="#f4a856" d="M4.201 2.832a13.434 13.434 0 0 1 12.156.054 4.394 4.394 0 0 1 2.494 3.315c.1-1.338-.728-2.7-2.493-3.727A13.433 13.433 0 0 0 4.203 2.42c-1.774 1.014-2.615 2.366-2.526 3.7a4.394 4.394 0 0 1 2.524-3.288z" data-name="Path 374"/><path fill="#fce586" d="M17.487 9.78a16 16 0 0 1-14.479-.065c-1.909-1.114-2.9-2.551-2.973-4-.1 1.577.891 3.175 2.971 4.388a16 16 0 0 0 14.479.065c2.09-1.195 3.093-2.784 3.01-4.361-.087 1.451-1.089 2.877-3.008 3.973z" data-name="Path 375"/></g><g data-name="Group 552"><path fill="#f4a856" d="m55.273 150.514-.564.838a6.627 6.627 0 0 0-2.428-2.259 16 16 0 0 0-14.479-.065 6.681 6.681 0 0 0-2.41 2.176l-.6-.782-.008 1.788c-.046 1.542.944 3.095 2.976 4.28a16 16 0 0 0 14.479.064c2-1.145 3.011-2.654 3.018-4.166z" data-name="Path 376"/><path fill="#fccc6b" d="M52.256 154.68a16 16 0 0 1-14.479-.065c-3.988-2.326-3.972-6.069.037-8.359a16 16 0 0 1 14.479.064c3.988 2.327 3.972 6.07-.037 8.36z" data-name="Path 377"/><path fill="url(#r)" d="M386.922 287.881a16 16 0 0 1-14.479-.065c-3.988-2.326-3.972-6.069.037-8.359a16 16 0 0 1 14.479.064c3.988 2.327 3.972 6.07-.037 8.36z" data-name="Path 378" transform="translate(-334.666 -133.201)"/><path fill="#f4a856" d="M45.079 155.515a12.553 12.553 0 0 1-6.182-1.489c-1.648-.962-2.551-2.238-2.545-3.6s.921-2.627 2.577-3.573a13.552 13.552 0 0 1 12.242.055c1.648.961 2.551 2.238 2.546 3.6s-.921 2.627-2.577 3.573a12.493 12.493 0 0 1-6.061 1.434zm-.09-9.921a12.307 12.307 0 0 0-5.974 1.414c-1.6.914-2.484 2.13-2.49 3.422s.867 2.517 2.459 3.446a13.358 13.358 0 0 0 12.069.054c1.6-.914 2.484-2.13 2.49-3.423s-.867-2.517-2.459-3.445a12.38 12.38 0 0 0-6.095-1.468z" data-name="Path 379"/><path fill="url(#s)" d="M386.292 287.51a13.433 13.433 0 0 1-12.155-.055c-3.348-1.953-3.335-5.1.031-7.018a13.434 13.434 0 0 1 12.156.054c3.347 1.955 3.334 5.096-.032 7.019z" data-name="Path 380" transform="translate(-335.195 -133.506)"/><path fill="#f4a856" d="M38.97 147.343a13.433 13.433 0 0 1 12.155.054 4.392 4.392 0 0 1 2.494 3.315c.1-1.337-.728-2.7-2.492-3.727a13.434 13.434 0 0 0-12.156-.054c-1.773 1.014-2.615 2.366-2.526 3.7a4.395 4.395 0 0 1 2.525-3.288z" data-name="Path 381"/><path fill="#fce586" d="M52.258 154.291a16.006 16.006 0 0 1-14.48-.065c-1.908-1.114-2.9-2.551-2.973-4-.1 1.577.892 3.176 2.972 4.388a16 16 0 0 0 14.479.065c2.09-1.195 3.093-2.784 3.01-4.361-.089 1.448-1.09 2.877-3.008 3.973z" data-name="Path 382"/></g><g data-name="Group 553" transform="translate(36.172 140.575)"><path fill="#f4a856" d="m20.503 5.999-.564.837a6.632 6.632 0 0 0-2.428-2.259 16 16 0 0 0-14.479-.064 6.686 6.686 0 0 0-2.41 2.176l-.595-.781-.008 1.788c-.046 1.542.944 3.095 2.976 4.28a16 16 0 0 0 14.48.065c2-1.145 3.01-2.654 3.017-4.167z" data-name="Path 383"/><ellipse cx="5.911" cy="10.239" fill="#fccc6b" data-name="Ellipse 48" rx="5.911" ry="10.239" transform="rotate(-89.743 5.938 5.912)"/><ellipse cx="5.911" cy="10.239" fill="url(#t)" data-name="Ellipse 49" rx="5.911" ry="10.239" transform="rotate(-89.743 5.938 5.912)"/><path fill="#f4a856" d="M10.309 11.003a12.553 12.553 0 0 1-6.182-1.489c-1.647-.961-2.551-2.238-2.545-3.6s.921-2.627 2.577-3.573a13.551 13.551 0 0 1 12.243.055c1.647.961 2.551 2.238 2.545 3.595s-.921 2.627-2.577 3.573a12.483 12.483 0 0 1-6.061 1.439zm-.089-9.921a12.308 12.308 0 0 0-5.975 1.414c-1.6.914-2.484 2.13-2.49 3.422s.868 2.517 2.459 3.446a13.359 13.359 0 0 0 12.07.054c1.6-.914 2.484-2.13 2.489-3.423s-.867-2.516-2.458-3.444a12.374 12.374 0 0 0-6.094-1.469z" data-name="Path 384"/><path fill="url(#u)" d="M388.147 282.308a13.434 13.434 0 0 1-12.156-.054c-3.348-1.953-3.334-5.1.031-7.018a13.434 13.434 0 0 1 12.156.054c3.348 1.953 3.334 5.095-.031 7.018z" data-name="Path 385" transform="translate(-371.819 -272.815)"/><path fill="#f4a856" d="M4.202 2.832a13.435 13.435 0 0 1 12.155.054 4.4 4.4 0 0 1 2.495 3.315c.1-1.337-.728-2.7-2.493-3.726a13.434 13.434 0 0 0-12.156-.054c-1.773 1.013-2.615 2.365-2.525 3.7a4.392 4.392 0 0 1 2.524-3.289z" data-name="Path 386"/><path fill="#fce586" d="M17.488 9.78a16 16 0 0 1-14.479-.065C1.1 8.602.109 7.164.036 5.715c-.1 1.577.891 3.175 2.971 4.388a16 16 0 0 0 14.48.064c2.09-1.195 3.093-2.784 3.01-4.361-.088 1.45-1.088 2.878-3.009 3.974z" data-name="Path 387"/></g><g data-name="Group 554"><path fill="#f4a856" d="m63.749 148.207-.724.705a6.63 6.63 0 0 0-1.915-2.708 16 16 0 0 0-14.159-3.027 6.682 6.682 0 0 0-2.805 1.637l-.422-.887-.374 1.749c-.36 1.5.291 3.223 2.037 4.8a16 16 0 0 0 14.16 3.028c2.2-.711 3.49-1.981 3.806-3.461z" data-name="Path 388"/><path fill="#fccc6b" d="M59.943 151.668a16 16 0 0 1-14.159-3.027c-3.428-3.094-2.645-6.754 1.748-8.176a16 16 0 0 1 14.159 3.028c3.427 3.093 2.645 6.753-1.748 8.175z" data-name="Path 389"/><path fill="url(#v)" d="M397.46 283.37a16 16 0 0 1-14.159-3.027c-3.428-3.094-2.645-6.754 1.748-8.176a16 16 0 0 1 14.159 3.028c3.427 3.093 2.645 6.753-1.748 8.175z" data-name="Path 390" transform="translate(-337.517 -131.702)"/><path fill="#f4a856" d="M52.748 151.015a12.557 12.557 0 0 1-5.746-2.723c-1.415-1.278-2.039-2.713-1.755-4.04s1.44-2.383 3.254-2.97a13.549 13.549 0 0 1 11.972 2.56c1.415 1.278 2.039 2.712 1.755 4.04s-1.44 2.382-3.254 2.969a12.485 12.485 0 0 1-6.226.164zm1.943-9.729a12.308 12.308 0 0 0-6.137.161c-1.753.567-2.867 1.577-3.137 2.841s.334 2.642 1.7 3.876a13.358 13.358 0 0 0 11.8 2.523c1.753-.567 2.867-1.576 3.138-2.841s-.334-2.64-1.7-3.875a12.384 12.384 0 0 0-5.665-2.685z" data-name="Path 391"/><path fill="url(#w)" d="M396.986 282.789a13.434 13.434 0 0 1-11.888-2.541c-2.878-2.6-2.22-5.67 1.467-6.864a13.436 13.436 0 0 1 11.888 2.542c2.877 2.597 2.22 5.674-1.467 6.863z" data-name="Path 392" transform="translate(-338.038 -132.02)"/><path fill="#f4a856" d="M48.442 141.767a13.435 13.435 0 0 1 11.887 2.542 4.393 4.393 0 0 1 1.763 3.755c.373-1.288-.16-2.788-1.677-4.157a13.436 13.436 0 0 0-11.888-2.542c-1.943.629-3.043 1.78-3.23 3.108a4.395 4.395 0 0 1 3.145-2.706z" data-name="Path 393"/><path fill="#fce586" d="M60.025 151.286a16 16 0 0 1-14.159-3.027c-1.641-1.48-2.314-3.09-2.092-4.522-.418 1.524.222 3.29 2.01 4.9a16 16 0 0 0 14.159 3.027c2.291-.741 3.6-2.092 3.839-3.652-.383 1.401-1.656 2.594-3.757 3.274z" data-name="Path 394"/></g><g data-name="Group 555" transform="translate(27.429 89.821)"><path fill="#f4a856" d="m20.712 15.295-.9.452a6.628 6.628 0 0 0-1-3.162A16 16 0 0 0 6.241 5.399a6.679 6.679 0 0 0-3.169.707l-.133-.973-.887 1.552c-.8 1.319-.7 3.158.483 5.191a16 16 0 0 0 12.571 7.186c2.308-.01 3.927-.828 4.677-2.141z" data-name="Path 395"/><ellipse cx="5.911" cy="10.239" fill="#fccc6b" data-name="Ellipse 50" rx="5.911" ry="10.239" transform="rotate(-60.26 8.846 5.133)"/><ellipse cx="5.911" cy="10.239" fill="url(#x)" data-name="Ellipse 51" rx="5.911" ry="10.239" transform="rotate(-60.26 8.846 5.133)"/><path fill="#f4a856" d="M9.377 14.628a12.552 12.552 0 0 1-4.648-4.34c-.961-1.648-1.118-3.2-.444-4.383s2.095-1.832 4-1.841a13.552 13.552 0 0 1 10.629 6.076c.96 1.648 1.118 3.2.444 4.382s-2.095 1.833-4 1.841a12.486 12.486 0 0 1-5.981-1.735zm4.807-8.679a12.307 12.307 0 0 0-5.9-1.71c-1.842.008-3.211.63-3.852 1.753s-.485 2.618.443 4.209a13.359 13.359 0 0 0 10.478 5.99c1.842-.008 3.211-.63 3.852-1.754s.485-2.617-.443-4.209a12.379 12.379 0 0 0-4.578-4.28z" data-name="Path 396"/><path fill="url(#y)" d="M376.358 223.017a13.436 13.436 0 0 1-10.554-6.033c-1.953-3.348-.393-6.076 3.483-6.093a13.435 13.435 0 0 1 10.554 6.032c1.952 3.349.393 6.077-3.483 6.094z" data-name="Path 397" transform="translate(-361 -206.74)"/><path fill="#f4a856" d="M8.083 4.508a13.435 13.435 0 0 1 10.554 6.032 4.4 4.4 0 0 1 .539 4.114c.747-1.114.694-2.706-.334-4.471A13.435 13.435 0 0 0 8.288 4.151c-2.043.008-3.441.771-4.022 1.98a4.393 4.393 0 0 1 3.817-1.623z" data-name="Path 398"/><path fill="#fce586" d="M16.227 17.097A16 16 0 0 1 3.656 9.911C2.543 8.002 2.39 6.265 3.037 4.967c-.861 1.325-.788 3.2.425 5.283a16 16 0 0 0 12.571 7.186c2.408-.011 4.062-.9 4.767-2.314-.789 1.215-2.364 1.966-4.573 1.975z" data-name="Path 399"/></g><g data-name="Group 556"><path fill="#f4a856" d="m46.163 123.029-.078 1.008a6.623 6.623 0 0 0-3.226-.769 16 16 0 0 0-12.629 7.083 6.684 6.684 0 0 0-1.024 3.082l-.9-.387.875 1.56c.72 1.363 2.347 2.226 4.7 2.256a16 16 0 0 0 12.629-7.082c1.179-1.985 1.311-3.793.571-5.113z" data-name="Path 400"/><path fill="#fccc6b" d="M45.592 128.14a16 16 0 0 1-12.629 7.083c-4.617-.057-6.448-3.322-4.09-7.291a16 16 0 0 1 12.629-7.083c4.618.057 6.448 3.322 4.09 7.291z" data-name="Path 401"/><path fill="url(#z)" d="M378.021 253.71a16 16 0 0 1-12.629 7.083c-4.617-.057-6.448-3.322-4.09-7.291a16 16 0 0 1 12.629-7.083c4.618.057 6.448 3.322 4.09 7.291z" data-name="Path 402" transform="translate(-332.429 -125.57)"/><path fill="#f4a856" d="M39.759 132.404a12.538 12.538 0 0 1-6.113 1.753c-1.907-.023-3.323-.689-3.987-1.874s-.494-2.739.48-4.379a13.552 13.552 0 0 1 10.678-5.988c1.907.024 3.323.689 3.987 1.874s.494 2.739-.48 4.379a12.479 12.479 0 0 1-4.565 4.235zm-4.969-8.586a12.306 12.306 0 0 0-4.5 4.175c-.941 1.583-1.111 3.077-.478 4.205s1.995 1.762 3.838 1.785a13.358 13.358 0 0 0 10.527-5.9c.941-1.584 1.111-3.077.478-4.205s-1.995-1.762-3.837-1.785a12.365 12.365 0 0 0-6.028 1.725z" data-name="Path 403"/><path fill="url(#A)" d="M377.165 254.065a13.434 13.434 0 0 1-10.6 5.946c-3.876-.048-5.414-2.788-3.434-6.121a13.435 13.435 0 0 1 10.6-5.946c3.876.048 5.414 2.789 3.434 6.121z" data-name="Path 404" transform="translate(-332.914 -125.941)"/><path fill="#f4a856" d="M30.415 128.307a13.435 13.435 0 0 1 10.6-5.946 4.394 4.394 0 0 1 3.8 1.654c-.571-1.214-1.963-1.988-4.006-2.013a13.435 13.435 0 0 0-10.6 5.946c-1.043 1.756-1.108 3.347-.371 4.467a4.394 4.394 0 0 1 .577-4.108z" data-name="Path 405"/><path fill="#fce586" d="M45.401 127.8a16 16 0 0 1-12.629 7.082c-2.21-.027-3.779-.791-4.558-2.012.693 1.419 2.341 2.322 4.749 2.353a16 16 0 0 0 12.629-7.083c1.23-2.07 1.319-3.947.469-5.278.635 1.303.469 3.039-.66 4.938z" data-name="Path 406"/></g></g><path fill="#fff" d="M27.755 123.078a2.013 2.013 0 0 1-1.008-.269l-26.5-15.3a.484.484 0 0 1 0-.839L23.69 93.136l.235.408L.483 107.078l26.506 15.326a1.547 1.547 0 0 0 1.543 0l15.814-9.1a2.017 2.017 0 0 1 2.021.006l6.473 3.783-.238.406-6.473-3.783a1.544 1.544 0 0 0-1.549 0l-15.814 9.1a2.012 2.012 0 0 1-1.011.262z" data-name="Path 407"/><g data-name="Group 559"><g data-name="Group 558"><path fill="url(#B)" d="m445 210.369-24.676-26.5-24.676-2s-3.966 33.452 24.676 68.933C448.965 248.4 445 210.369 445 210.369z" data-name="Path 408" transform="translate(-298.787 -109.854)"/><path fill="url(#C)" d="m393.92 181.875-5.552 3.205 24.676 2 5.552-3.205z" data-name="Path 409" transform="translate(-297.06 -109.854)"/><path fill="url(#D)" d="m437.66 214.607-24.677-26.5-10.146-1.025-14.53-.971s-3.966 33.451 24.676 68.932c28.643-2.405 24.677-40.436 24.677-40.436z" data-name="Path 410" transform="translate(-296.999 -110.886)"/><path fill="#fff" d="m140.661 103.721-24.677-26.5-24.676-2 .7-.4 25 2.023 24.676 26.5s3.31 31.791-18.018 39.077c20.198-7.938 16.995-38.7 16.995-38.7z" data-name="Path 411"/></g><path fill="#fff" d="m137.666 104.132-22.187-23.824-9.123-.922-13.063-.873s-3.566 30.076 22.186 61.976c25.752-2.164 22.187-36.357 22.187-36.357z" data-name="Path 412" opacity=".2"/></g></svg>