<svg xmlns="http://www.w3.org/2000/svg" width="167.782" height="184.128" data-name="Group 572"><defs><linearGradient id="a" x1=".068" x2=".916" y1=".106" y2=".88" gradientUnits="objectBoundingBox"><stop offset="0" stop-color="#3a9bd5"/><stop offset=".305" stop-color="#3a9bd5"/><stop offset=".356" stop-color="#3a9bd5"/><stop offset=".599" stop-color="#3999d3"/><stop offset=".688" stop-color="#3592cf"/><stop offset=".752" stop-color="#2f86c7"/><stop offset=".804" stop-color="#2675bb"/><stop offset=".81" stop-color="#2573ba"/></linearGradient><linearGradient id="b" x1="6.44" x2="6.999" y1="-1.815" y2="-1.305" gradientUnits="objectBoundingBox"><stop offset="0" stop-color="#59bdef"/><stop offset="1" stop-color="#7bdaff"/></linearGradient><linearGradient id="c" x1="-11.939" x2="-10.511" y1=".82" y2="1.179" gradientUnits="objectBoundingBox"><stop offset="0" stop-color="#2573ba"/><stop offset=".907" stop-color="#0364ae"/><stop offset="1" stop-color="#0063ad"/></linearGradient><linearGradient id="d" x1="-32.724" x2="-31.724" y1=".5" y2=".5" gradientUnits="objectBoundingBox"><stop offset="0" stop-color="#0063ad"/><stop offset="1" stop-color="#2573ba"/></linearGradient><linearGradient id="e" x1="-12.368" x2="-11.214" y1=".896" y2=".896" gradientUnits="objectBoundingBox"><stop offset="0" stop-color="#7bdaff"/><stop offset="1" stop-color="#59bdef"/></linearGradient></defs><g data-name="Group 562"><path fill="#13247a" d="m165.962 154.624-49.263 28.453a8.265 8.265 0 0 1-7.435.308L1.286 121.044c-1.906-1.1-1.667-3.022.534-4.293l49.26-28.453a8.265 8.265 0 0 1 7.435-.308l107.978 62.341c1.908 1.101 1.669 3.022-.531 4.293z" data-name="Path 413" opacity=".5"/><path fill="url(#a)" d="m687.7 247.042-10.149-1.766-99.113-57.226a8.263 8.263 0 0 0-7.435.309l-45.914 26.52-5.168-.9v5.25h.005a2.2 2.2 0 0 0 1.281 1.875l107.978 62.341a8.265 8.265 0 0 0 7.435-.308l49.263-28.454a3.023 3.023 0 0 0 1.817-2.466z" data-name="Path 414" transform="translate(-519.92 -110.281)"/><path fill="url(#b)" d="m685.882 247.35-49.263 28.45a8.26 8.26 0 0 1-7.435.308L521.206 213.77c-1.906-1.1-1.667-3.022.534-4.293L571 181.024a8.265 8.265 0 0 1 7.435-.308l107.978 62.341c1.908 1.101 1.669 3.022-.531 4.293z" data-name="Path 415" transform="translate(-519.92 -108.163)"/><path fill="#fff" d="m165.962 138.516-49.263 28.453a8.265 8.265 0 0 1-7.435.308L1.286 104.936a2.377 2.377 0 0 1-1.251-1.52 2.094 2.094 0 0 0 1.251 2.192l107.978 62.34a8.26 8.26 0 0 0 7.435-.308l49.263-28.453c1.369-.791 1.978-1.833 1.784-2.773a3.333 3.333 0 0 1-1.784 2.102z" data-name="Path 416"/><path fill="#0f65b2" d="m166.036 134.628-57.231 33.054-107.059-61.81 57.232-33.054z" data-name="Path 417"/><path fill="#0063ad" d="m33.835 85.758-7.6 4.389a1.241 1.241 0 0 1-1.116.046l-.077-.045c-.286-.165-.25-.453.08-.644l7.6-4.389a1.237 1.237 0 0 1 1.115-.046l.077.044c.287.166.251.454-.079.645z" data-name="Path 418"/><g fill="#fff" data-name="Group 561"><path d="m15.688 106.414-.96.554-2.273-1.312.96-.554z" data-name="Path 419"/><path d="m17.456 105.39-.96.554-2.273-1.312.96-.554z" data-name="Path 420"/><path d="m19.224 104.37-.96.554-2.273-1.313.96-.554z" data-name="Path 421"/><path d="m20.993 103.348-.96.554-2.273-1.313.96-.554z" data-name="Path 422"/></g></g><g data-name="Group 563"><path fill="#fff" d="M53.488 8.06a3.382 3.382 0 1 1-3.382 3.382 3.382 3.382 0 0 1 3.382-3.382z" data-name="Path 423"/><path fill="#84e4a4" d="M42.569 8.06a3.382 3.382 0 1 1-3.383 3.382 3.382 3.382 0 0 1 3.383-3.382z" data-name="Path 424"/><path fill="#84e4a4" d="M31.649 8.06a3.382 3.382 0 1 1-3.383 3.382 3.382 3.382 0 0 1 3.383-3.382z" data-name="Path 425" opacity=".5"/><path fill="#84e4a4" d="M20.733 8.06a3.382 3.382 0 1 1-3.382 3.382 3.382 3.382 0 0 1 3.382-3.382z" data-name="Path 426" opacity=".1"/></g><ellipse cx="19.132" cy="11.046" fill="#041860" data-name="Ellipse 52" opacity=".6" rx="19.132" ry="11.046" transform="translate(53.22 101.761)"/><path fill="#fff" d="M72.354 130.092c-7.6 0-15.209-1.672-21-5.014-5.657-3.266-8.773-7.624-8.773-12.271s3.115-9 8.772-12.27c11.579-6.684 30.418-6.684 42 0 5.657 3.266 8.773 7.624 8.773 12.271s-3.115 9-8.772 12.27c-5.792 3.342-13.396 5.014-21 5.014zm0-34.066c-7.513 0-15.024 1.651-20.743 4.953-5.493 3.17-8.518 7.371-8.518 11.828s3.025 8.658 8.518 11.829c11.438 6.6 30.048 6.6 41.485 0 5.493-3.172 8.518-7.372 8.518-11.829s-3.025-8.658-8.518-11.829c-5.714-3.301-13.231-4.952-20.742-4.952z" data-name="Path 427"/><g data-name="Group 566"><path fill="#fff" d="M149.74 47.71 67.632.31a1.635 1.635 0 0 0-1.673-.132l-1.22.713.565.08a3.257 3.257 0 0 0-.232 1.28V58.81a6.131 6.131 0 0 0 2.56 4.891l82.108 47.409a2.483 2.483 0 0 0 .454.206v.641l1.227-.715h-.007a2.264 2.264 0 0 0 .887-2.068V52.602a6.131 6.131 0 0 0-2.561-4.892z" data-name="Path 428"/><path fill="#84e4a4" d="M148.55 111.803 66.442 64.398a6.131 6.131 0 0 1-2.56-4.891V2.935c0-1.885 1.146-2.751 2.56-1.936l82.108 47.406a6.131 6.131 0 0 1 2.56 4.891v56.572c0 1.886-1.146 2.752-2.56 1.935z" data-name="Path 429"/><g fill="#fff" data-name="Group 564"><path d="M124.066 51.342v-8.075l1.712.989a5.566 5.566 0 0 1 .845.587 3.857 3.857 0 0 1 .641.7 2.927 2.927 0 0 1 .424.886 3.708 3.708 0 0 1 .139 1.068q0 1.494-1.03 1.077a3.169 3.169 0 0 1 .927 1.161 3.719 3.719 0 0 1 .309 1.555q0 1.152-.5 1.458t-1.463-.248zm1.274-4.048.4.23q.561.322.772.168c.14-.1.211-.375.211-.814a2.225 2.225 0 0 0-.07-.593 1.227 1.227 0 0 0-.234-.454 2.025 2.025 0 0 0-.365-.351 5.642 5.642 0 0 0-.534-.343l-.177-.1zm0 3.745.468.27c.38.219.644.27.789.149s.219-.415.219-.886a2.587 2.587 0 0 0-.246-1.2 2.061 2.061 0 0 0-.829-.806l-.4-.232z" data-name="Path 430"/><path d="m128.491 53.896 1.422-7.254 1.328.767 1.417 8.893-1.185-.684-.282-2.039-1.21-.7-.287 1.71zm1.624-1.9.937.54-.469-3.587z" data-name="Path 431"/><path d="M133.346 56.7v-8.075l.877.506 1.713 5.563V50.12l1.054.608v8.075l-.835-.482-1.729-5.806v4.807z" data-name="Path 432"/><path d="M138.037 59.407v-8.075l1.274.736v3.507l1.375-2.714 1.215.7-1.336 2.842 1.476 5.313-1.27-.733-1.206-4.494-.253.379v3.274z" data-name="Path 433"/></g><g fill="#fff" data-name="Group 565"><path d="m86.551 64.276-15.586-9v-2.083l15.586 9z" data-name="Path 434"/><path d="m105.71 75.336-15.586-9v-2.083l15.586 9z" data-name="Path 435"/><path d="m124.868 86.398-15.586-9v-2.084l15.586 9z" data-name="Path 436"/><path d="m144.026 97.458-15.586-9v-2.083l15.586 9z" data-name="Path 437"/></g></g><path fill="#041860" d="m82.349 23.258-18.467-1.489v37.743a6.133 6.133 0 0 0 2.56 4.892l35.53 20.513c9.183-13.013 7.108-32.95 7.108-32.95z" data-name="Path 438" opacity=".2"/><g data-name="Group 568"><g data-name="Group 567"><path fill="url(#c)" d="M642.629 145.714 615.9 117.01l-26.731-2.163s-4.3 36.236 26.731 74.671c31.024-2.607 26.729-43.804 26.729-43.804z" data-name="Path 439" transform="translate(-539.866 -89.349)"/><path fill="url(#d)" d="m586.806 114.848-6.014 3.472 26.731 2.163 6.014-3.472z" data-name="Path 440" transform="translate(-537.505 -89.349)"/><path fill="url(#e)" d="m634.171 150.6-26.73-28.7-10.992-1.111-15.739-1.052s-4.3 36.236 26.731 74.671c31.026-2.614 26.73-43.808 26.73-43.808z" data-name="Path 441" transform="translate(-537.423 -90.76)"/><path fill="#fff" d="m96.748 59.838-26.731-28.7-26.73-2.163.755-.437 27.086 2.192 26.731 28.7s3.586 34.439-19.519 42.331c21.878-8.6 18.408-41.923 18.408-41.923z" data-name="Path 442"/></g><path fill="#fff" d="M93.504 60.282 69.47 34.476l-9.882-1-14.151-.946S41.574 65.111 69.47 99.667c27.896-2.344 24.034-39.385 24.034-39.385z" data-name="Path 443" opacity=".2"/></g><g fill="#fff" data-name="Group 569"><path d="m51.513 41.358.945.945-.945.944-.945-.944z" data-name="Rectangle 352"/><path d="m54.927 41.346.945.945-.945.944-.945-.944z" data-name="Rectangle 353"/><path d="m53.226 39.645.945.945-.945.944-.945-.944z" data-name="Rectangle 354"/><path d="m53.214 43.059.945.945-.945.944-.945-.944z" data-name="Rectangle 355"/></g><g data-name="Group 570"><path fill="#fff" d="m150.758 37.261-1.945-1.945 4.674-4.675-4.674-4.674 1.945-1.945 6.62 6.619zm-1.168-1.945 1.168 1.168 5.843-5.843-5.843-5.843-1.168 1.168 4.674 4.674z" data-name="Path 444"/><path fill="#84e4a4" d="m143.511 24.41-1.557 1.557 4.674 4.674-4.674 4.674 1.557 1.557 4.674-4.674 1.557-1.557z" data-name="Path 445" opacity=".5"/></g><g fill="#fff" data-name="Group 571"><path d="M112.54 150.063a.374.374 0 0 1-.029-.747 38.5 38.5 0 0 0 15.893-4.821c5-2.889 8-5.765 8.907-8.549a.374.374 0 0 1 .711.232c-.966 2.964-4.075 5.98-9.244 8.964a39.26 39.26 0 0 1-16.208 4.919z" data-name="Path 446"/><path d="M137.963 134.429a.373.373 0 0 1-.373-.36c-.08-2.216-1.693-4.294-4.664-6.009-6.57-3.794-15.138-3.773-24.127.057a.374.374 0 0 1-.293-.688c9.21-3.923 18.015-3.929 24.793-.016 3.206 1.851 4.948 4.143 5.038 6.629a.373.373 0 0 1-.36.387z" data-name="Path 447"/><path d="M106.845 150.046h-.036a19.871 19.871 0 0 1-7.992-2.291 7.977 7.977 0 0 1-4.178-5.231.964.964 0 0 1 .239-.829 2.292 2.292 0 0 1 1.831-.621 1.782 1.782 0 0 1 1.72 1 6.311 6.311 0 0 0 3.159 3.644c5.835 3.369 17.071 2.362 25.048-2.243 5.147-2.972 7.868-6 7.868-8.76 0-1.942-1.378-3.765-3.984-5.269-6.724-3.882-15.854-3.065-25.047 2.242-3.317 1.915-5.7 4.261-6.7 6.606a1.728 1.728 0 0 1-1.6.831 1.955 1.955 0 0 1-1.687-.693.847.847 0 0 1-.051-.85c1.354-2.744 4.085-5.358 7.9-7.56a.374.374 0 0 1 .374.647c-3.685 2.127-6.313 4.632-7.6 7.243a.1.1 0 0 0 .011.116 1.292 1.292 0 0 0 1.038.348 1.094 1.094 0 0 0 .935-.377c1.065-2.493 3.554-4.964 7.01-6.96 9.431-5.445 18.833-6.262 25.8-2.242 2.851 1.646 4.358 3.692 4.358 5.917 0 3.085-2.773 6.25-8.242 9.407-8.183 4.725-19.755 5.73-25.795 2.243a7.12 7.12 0 0 1-3.5-4.086c-.056-.2-.47-.429-1.041-.459a1.592 1.592 0 0 0-1.226.364c-.089.1-.075.169-.07.193a7.257 7.257 0 0 0 3.814 4.728 19.139 19.139 0 0 0 7.689 2.194.373.373 0 0 1-.034.745z" data-name="Path 448"/><path d="M116.26 146.188a2.053 2.053 0 0 1-1.491-.55.884.884 0 0 1-.209-.882 1.44 1.44 0 0 1 1.152-.84 23.837 23.837 0 0 0 7.1-2.649c3.455-1.994 5.411-3.987 5.658-5.762a2.874 2.874 0 0 0-.914-2.461.937.937 0 0 1-.272-.885 1.4 1.4 0 0 1 .971-.913 2.6 2.6 0 0 1 2.576.438 4.533 4.533 0 0 1 1.388 3.541c-.144 1.846-1.48 3.755-3.97 5.678a.374.374 0 1 1-.457-.592c2.316-1.787 3.555-3.518 3.681-5.144a3.819 3.819 0 0 0-1.186-2.969 1.916 1.916 0 0 0-1.784-.247c-.324.114-.468.276-.492.379 0 .022-.021.09.081.194a3.584 3.584 0 0 1 1.118 3.085c-.284 2.04-2.311 4.162-6.025 6.307a24.627 24.627 0 0 1-7.328 2.734c-.353.071-.554.227-.592.341-.006.019-.021.065.055.149a1.529 1.529 0 0 0 1.318.264 28.116 28.116 0 0 0 8.058-3.047.374.374 0 1 1 .374.647 28.864 28.864 0 0 1-8.274 3.131 2.61 2.61 0 0 1-.536.053z" data-name="Path 449"/><path d="M110.338 146.766h-.088a14.77 14.77 0 0 1-6.845-1.661 5.258 5.258 0 0 1-3-4.583c0-2.833 2.482-5.958 6.638-8.357 6.585-3.8 13.164-5.023 18.526-3.44a1.5 1.5 0 0 1 1.094.913.936.936 0 0 1-.22.9 2.553 2.553 0 0 1-2.492.5c-3.831-1.149-8.667-.336-13.618 2.288-.186.1-.253.2-.254.261s.083.161.214.238a1.789 1.789 0 0 0 1.533.02c4.924-2.6 9.511-3.077 12.585-1.3a3.208 3.208 0 0 1 1.894 2.708c0 1.736-1.705 3.6-5.067 5.542-4.608 2.66-10.682 3.483-13.541 1.832a2.945 2.945 0 0 1-1.564-2.1 4.614 4.614 0 0 1 1.535-3.68c.068-.073.059-.114.056-.128-.017-.076-.129-.193-.343-.282a1.667 1.667 0 0 0-1.6.18 5.223 5.223 0 0 0-1.719 4.1 3.487 3.487 0 0 0 1.905 2.473 10.252 10.252 0 0 0 4.473 1.151c.954.054 1.643.529 1.673 1.156a.955.955 0 0 1-.292.742 2.1 2.1 0 0 1-1.483.527zm10.37-17.971a27.079 27.079 0 0 0-13.287 4.016c-3.922 2.264-6.264 5.147-6.264 7.71a4.553 4.553 0 0 0 2.622 3.936 14.041 14.041 0 0 0 6.5 1.561 1.418 1.418 0 0 0 1.019-.3.231.231 0 0 0 .08-.154c-.009-.191-.382-.44-.97-.474a10.987 10.987 0 0 1-4.8-1.249 4.248 4.248 0 0 1-2.271-3.007 5.929 5.929 0 0 1 1.909-4.723 2.362 2.362 0 0 1 2.433-.363 1.209 1.209 0 0 1 .787.811.875.875 0 0 1-.236.8 3.979 3.979 0 0 0-1.345 3.061 2.2 2.2 0 0 0 1.2 1.565c2.652 1.531 8.393.709 12.794-1.832 3.026-1.747 4.693-3.485 4.693-4.895a2.487 2.487 0 0 0-1.52-2.061c-2.847-1.643-7.17-1.164-11.862 1.316a2.52 2.52 0 0 1-2.256-.033 1.041 1.041 0 0 1-.588-.9 1.086 1.086 0 0 1 .651-.908c5.125-2.718 10.161-3.551 14.182-2.345a1.852 1.852 0 0 0 1.713-.277c.094-.107.074-.174.067-.2-.037-.127-.233-.3-.588-.405a16.389 16.389 0 0 0-4.663-.653zm5.456 1.494z" data-name="Path 450"/><path d="M112.114 141.825a4.482 4.482 0 0 1-2.212-.472 1.671 1.671 0 0 1-.915-1.489c0-1.336 1.439-2.965 3.85-4.357 3.912-2.259 7.329-2.876 9.378-1.694a1.879 1.879 0 0 1 1.091 1.589c.029 1.09-.986 2.315-3.019 3.639a2.489 2.489 0 0 1-2.376.042 1.055 1.055 0 0 1-.587-.861.994.994 0 0 1 .511-.854c1.631-1.059 1.63-1.5 1.63-1.5-.455-.264-1.83-.039-4.32 1.4-1.727 1-2.441 1.852-2.439 2.088a.373.373 0 0 1-.371.375.373.373 0 0 1-.373-.371c-.008-1.03 2.151-2.357 2.812-2.739 1.71-.987 3.97-2.037 5.034-1.42a.757.757 0 0 1 .407.646c.009.366-.184.987-1.97 2.145-.107.07-.173.149-.171.208s.058.143.215.233a1.755 1.755 0 0 0 1.594-.021c2.36-1.539 2.692-2.536 2.679-2.994a1.192 1.192 0 0 0-.718-.962c-.856-.494-3.411-1.318-8.629 1.694-2.112 1.22-3.477 2.676-3.477 3.71a.937.937 0 0 0 .542.842c.908.523 2.692.494 4.772-.079a.374.374 0 1 1 .2.72 12.053 12.053 0 0 1-3.138.482z" data-name="Path 451"/></g><path fill="#fff" d="M105.925 128.97a.238.238 0 0 1-.119-.032l-9.845-5.683a.237.237 0 0 1 .238-.411l9.845 5.683a.238.238 0 0 1-.119.443z" data-name="Path 452"/></svg>