<svg xmlns="http://www.w3.org/2000/svg" xmlns:xlink="http://www.w3.org/1999/xlink" width="166.007" height="185.519" data-name="Group 591"><defs><linearGradient id="b" x1=".068" x2=".916" y1=".106" y2=".88" gradientUnits="objectBoundingBox"><stop offset="0" stop-color="#3a9bd5"/><stop offset=".305" stop-color="#3a9bd5"/><stop offset=".356" stop-color="#3a9bd5"/><stop offset=".599" stop-color="#3999d3"/><stop offset=".688" stop-color="#3592cf"/><stop offset=".752" stop-color="#2f86c7"/><stop offset=".804" stop-color="#2675bb"/><stop offset=".81" stop-color="#2573ba"/></linearGradient><linearGradient id="c" x1="7.584" x2="8.143" y1="-3.964" y2="-3.454" gradientUnits="objectBoundingBox"><stop offset="0" stop-color="#59bdef"/><stop offset="1" stop-color="#7bdaff"/></linearGradient><linearGradient id="a" x1="-104.767" x2="-105.366" y1="-14.01" y2="-15.115" gradientUnits="objectBoundingBox"><stop offset=".768" stop-color="#59bdef"/><stop offset=".845" stop-color="#54b8eb"/><stop offset=".932" stop-color="#48aae1"/><stop offset="1" stop-color="#3a9bd5"/></linearGradient><linearGradient xlink:href="#a" id="e" x1="-62.691" x2="-63.279" y1="-13.882" y2="-15.009"/><linearGradient id="f" x1="-126.706" x2="-126.706" y1="-16.315" y2="-18.346" gradientUnits="objectBoundingBox"><stop offset=".768" stop-color="#3a9bd5"/><stop offset=".839" stop-color="#3796d1"/><stop offset=".918" stop-color="#3088c8"/><stop offset="1" stop-color="#2573ba"/></linearGradient><linearGradient id="g" x1="-126.427" x2="-125.387" y1="-18.576" y2="-17.625" gradientUnits="objectBoundingBox"><stop offset="0" stop-color="#7bdaff"/><stop offset="1" stop-color="#59bdef"/></linearGradient><clipPath id="d"><path fill="none" d="m95.759 36.401-22.57 14.971-73.19-36.4L22.572 0z" data-name="Path 588"/></clipPath></defs><path fill="#13247a" d="m164.206 156.327-48.737 28.152a8.176 8.176 0 0 1-7.356.305L1.269 123.103c-1.885-1.089-1.649-2.99.528-4.247l48.741-28.152a8.176 8.176 0 0 1 7.356-.305l106.835 61.682c1.89 1.088 1.654 2.989-.523 4.246z" data-name="Path 453" opacity=".5"/><g data-name="Group 573"><path fill="url(#b)" d="M190.538 243.349 180.5 241.6l-98.07-56.618a8.178 8.178 0 0 0-7.356.3l-45.428 26.24-5.114-.89v5.2a2.175 2.175 0 0 0 1.268 1.855l106.835 61.681a8.178 8.178 0 0 0 7.356-.3l48.741-28.152a2.993 2.993 0 0 0 1.8-2.441z" data-name="Path 454" transform="translate(-24.531 -107.722)"/><path fill="url(#c)" d="M188.737 243.654 140 271.806a8.18 8.18 0 0 1-7.356.305L25.8 210.43c-1.885-1.089-1.649-2.99.528-4.247l48.746-28.153a8.176 8.176 0 0 1 7.356-.305l106.835 61.682c1.885 1.088 1.649 2.993-.528 4.247z" data-name="Path 455" transform="translate(-24.531 -105.625)"/><path fill="#fff" d="m164.206 137.364-48.739 28.152a8.178 8.178 0 0 1-7.356.3L1.273 104.14a2.352 2.352 0 0 1-1.237-1.5 2.071 2.071 0 0 0 1.237 2.168l106.835 61.681a8.176 8.176 0 0 0 7.356-.3l48.741-28.152c1.355-.782 1.957-1.813 1.765-2.743a3.294 3.294 0 0 1-1.764 2.07z" data-name="Path 456"/><path fill="#0f65b2" d="m164.279 133.518-56.626 32.7L1.728 105.069l56.626-32.7z" data-name="Path 457"/><path fill="#0063ad" d="m33.482 85.165-7.522 4.343a1.225 1.225 0 0 1-1.1.046l-.077-.044c-.283-.163-.247-.448.08-.637l7.521-4.343a1.229 1.229 0 0 1 1.1-.046l.076.044c.279.162.244.448-.078.637z" data-name="Path 458"/></g><g data-name="Group 576"><g data-name="Group 575"><g clip-path="url(#d)" data-name="Group 574" transform="translate(34.629 94.143)"><path fill="#fff" d="M0 0h95.759v51.371H0z" data-name="Rectangle 356"/><ellipse cx="11.374" cy="38.476" fill="#fff" data-name="Ellipse 53" rx="11.374" ry="38.476" transform="rotate(-64.601 19.348 3.119)"/><ellipse cx="11.33" cy="38.325" fill="#fff" data-name="Ellipse 54" rx="11.33" ry="38.325" transform="rotate(-64.601 19.445 3.008)"/><ellipse cx="11.285" cy="38.174" fill="#fff" data-name="Ellipse 55" rx="11.285" ry="38.174" transform="rotate(-64.601 19.542 2.897)"/><ellipse cx="11.241" cy="38.023" fill="#fff" data-name="Ellipse 56" rx="11.241" ry="38.023" transform="rotate(-64.601 19.639 2.787)"/><ellipse cx="11.196" cy="37.872" fill="#feffff" data-name="Ellipse 57" rx="11.196" ry="37.872" transform="rotate(-64.601 19.737 2.676)"/><ellipse cx="11.151" cy="37.721" fill="#fefeff" data-name="Ellipse 58" rx="11.151" ry="37.721" transform="rotate(-64.601 19.833 2.565)"/><ellipse cx="11.107" cy="37.57" fill="#fefeff" data-name="Ellipse 59" rx="11.107" ry="37.57" transform="rotate(-64.601 19.93 2.454)"/><ellipse cx="11.062" cy="37.419" fill="#fefefe" data-name="Ellipse 60" rx="11.062" ry="37.419" transform="rotate(-64.601 20.027 2.344)"/><ellipse cx="11.018" cy="37.269" fill="#fdfefe" data-name="Ellipse 61" rx="11.018" ry="37.269" transform="rotate(-64.601 20.124 2.233)"/><ellipse cx="10.973" cy="37.118" fill="#fdfdfe" data-name="Ellipse 62" rx="10.973" ry="37.118" transform="rotate(-64.601 20.222 2.122)"/><ellipse cx="10.928" cy="36.967" fill="#fdfdfe" data-name="Ellipse 63" rx="10.928" ry="36.967" transform="rotate(-64.601 20.318 2.012)"/><ellipse cx="10.884" cy="36.816" fill="#fcfdfe" data-name="Ellipse 64" rx="10.884" ry="36.816" transform="rotate(-64.601 20.416 1.9)"/><path fill="#fcfdfe" d="M80.988 41.213c-2.568 5.408-19.478 2.751-37.77-5.934S12.179 15.169 14.746 9.761s19.478-2.751 37.77 5.934 31.04 20.11 28.472 25.518z" data-name="Path 459"/><ellipse cx="10.795" cy="36.514" fill="#fbfcfe" data-name="Ellipse 65" rx="10.795" ry="36.514" transform="rotate(-64.601 20.61 1.679)"/><ellipse cx="10.75" cy="36.363" fill="#fbfcfd" data-name="Ellipse 66" rx="10.75" ry="36.363" transform="rotate(-64.601 20.707 1.569)"/><ellipse cx="10.705" cy="36.212" fill="#fbfcfd" data-name="Ellipse 67" rx="10.705" ry="36.212" transform="rotate(-64.601 20.803 1.458)"/><ellipse cx="10.661" cy="36.061" fill="#fafbfd" data-name="Ellipse 68" rx="10.661" ry="36.061" transform="rotate(-64.59 20.91 1.346)"/><ellipse cx="10.616" cy="35.911" fill="#fafbfd" data-name="Ellipse 69" rx="10.616" ry="35.911" transform="rotate(-64.601 20.997 1.237)"/><ellipse cx="10.572" cy="35.76" fill="#f9fbfd" data-name="Ellipse 70" rx="10.572" ry="35.76" transform="rotate(-64.601 21.094 1.125)"/><ellipse cx="10.527" cy="35.609" fill="#f9fafc" data-name="Ellipse 71" rx="10.527" ry="35.609" transform="rotate(-64.601 21.192 1.015)"/><ellipse cx="10.482" cy="35.458" fill="#f8fafc" data-name="Ellipse 72" rx="10.482" ry="35.458" transform="rotate(-64.601 21.289 .904)"/><ellipse cx="10.438" cy="35.307" fill="#f8fafc" data-name="Ellipse 73" rx="10.438" ry="35.307" transform="rotate(-64.601 21.386 .794)"/><ellipse cx="10.393" cy="35.156" fill="#f7f9fc" data-name="Ellipse 74" rx="10.393" ry="35.156" transform="rotate(-64.59 21.492 .681)"/><ellipse cx="10.349" cy="35.005" fill="#f7f9fc" data-name="Ellipse 75" rx="10.349" ry="35.005" transform="rotate(-64.601 21.58 .572)"/><ellipse cx="10.304" cy="34.854" fill="#f6f9fb" data-name="Ellipse 76" rx="10.304" ry="34.854" transform="rotate(-64.601 21.677 .462)"/><ellipse cx="10.259" cy="34.703" fill="#f6f8fb" data-name="Ellipse 77" rx="10.259" ry="34.703" transform="rotate(-64.59 21.783 .348)"/><ellipse cx="10.215" cy="34.553" fill="#f5f8fb" data-name="Ellipse 78" rx="10.215" ry="34.553" transform="rotate(-64.59 21.88 .238)"/><ellipse cx="10.17" cy="34.402" fill="#f5f7fb" data-name="Ellipse 79" rx="10.17" ry="34.402" transform="rotate(-64.601 21.968 .129)"/><ellipse cx="10.126" cy="34.251" fill="#f4f7fb" data-name="Ellipse 80" rx="10.126" ry="34.251" transform="rotate(-64.601 22.065 .019)"/><ellipse cx="10.081" cy="34.1" fill="#f4f7fa" data-name="Ellipse 81" rx="10.081" ry="34.1" transform="rotate(-64.601 22.162 -.092)"/><ellipse cx="10.036" cy="33.949" fill="#f3f6fa" data-name="Ellipse 82" rx="10.036" ry="33.949" transform="rotate(-64.601 22.26 -.203)"/><ellipse cx="9.992" cy="33.798" fill="#f2f6fa" data-name="Ellipse 83" rx="9.992" ry="33.798" transform="rotate(-64.601 22.356 -.313)"/><ellipse cx="9.947" cy="33.647" fill="#f2f5fa" data-name="Ellipse 84" rx="9.947" ry="33.647" transform="rotate(-64.601 22.453 -.425)"/><ellipse cx="9.902" cy="33.496" fill="#f1f5f9" data-name="Ellipse 85" rx="9.902" ry="33.496" transform="rotate(-64.59 22.56 -.538)"/><ellipse cx="9.858" cy="33.346" fill="#f1f4f9" data-name="Ellipse 86" rx="9.858" ry="33.346" transform="rotate(-64.601 22.647 -.646)"/><ellipse cx="9.813" cy="33.195" fill="#f0f4f9" data-name="Ellipse 87" rx="9.813" ry="33.195" transform="rotate(-64.601 22.744 -.756)"/><ellipse cx="9.769" cy="33.044" fill="#eff4f9" data-name="Ellipse 88" rx="9.769" ry="33.044" transform="rotate(-64.601 22.84 -.867)"/><ellipse cx="9.724" cy="32.893" fill="#eff3f8" data-name="Ellipse 89" rx="9.724" ry="32.893" transform="rotate(-64.601 22.939 -.978)"/><ellipse cx="9.679" cy="32.742" fill="#eef3f8" data-name="Ellipse 90" rx="9.679" ry="32.742" transform="rotate(-64.601 23.035 -1.088)"/><ellipse cx="9.635" cy="32.591" fill="#eef2f8" data-name="Ellipse 91" rx="9.635" ry="32.591" transform="rotate(-64.601 23.132 -1.2)"/><path fill="#edf2f8" d="M77.172 39.4c-2.272 4.785-17.233 2.434-33.418-5.251S16.291 16.357 18.563 11.572s17.234-2.433 33.418 5.251S79.444 34.616 77.172 39.4z" data-name="Path 460"/><ellipse cx="9.546" cy="32.289" fill="#ecf1f7" data-name="Ellipse 92" rx="9.546" ry="32.289" transform="rotate(-64.601 23.326 -1.421)"/><ellipse cx="9.501" cy="32.138" fill="#ecf1f7" data-name="Ellipse 93" rx="9.501" ry="32.138" transform="rotate(-64.601 23.424 -1.531)"/><ellipse cx="9.456" cy="31.988" fill="#ebf0f7" data-name="Ellipse 94" rx="9.456" ry="31.988" transform="rotate(-64.59 23.53 -1.646)"/><ellipse cx="9.412" cy="31.837" fill="#eaf0f6" data-name="Ellipse 95" rx="9.412" ry="31.837" transform="rotate(-64.601 23.617 -1.753)"/><ellipse cx="9.367" cy="31.686" fill="#eaeff6" data-name="Ellipse 96" rx="9.367" ry="31.686" transform="rotate(-64.601 23.714 -1.863)"/><ellipse cx="9.323" cy="31.535" fill="#e9eff6" data-name="Ellipse 97" rx="9.323" ry="31.535" transform="rotate(-64.601 23.811 -1.975)"/><ellipse cx="9.278" cy="31.384" fill="#e8eef6" data-name="Ellipse 98" rx="9.278" ry="31.384" transform="rotate(-64.601 23.909 -2.085)"/><ellipse cx="9.233" cy="31.233" fill="#e7eef5" data-name="Ellipse 99" rx="9.233" ry="31.233" transform="rotate(-64.601 24.006 -2.196)"/><path fill="#e7edf5" d="M75.946 38.819c-2.177 4.585-16.512 2.332-32.019-5.031S17.614 16.74 19.79 12.156s16.512-2.332 32.019 5.031 26.313 17.048 24.137 21.632z" data-name="Path 461"/><ellipse cx="9.144" cy="30.931" fill="#e6edf5" data-name="Ellipse 100" rx="9.144" ry="30.931" transform="rotate(-64.601 24.2 -2.418)"/><ellipse cx="9.1" cy="30.78" fill="#e5ecf4" data-name="Ellipse 101" rx="9.1" ry="30.78" transform="rotate(-64.601 24.296 -2.528)"/><ellipse cx="9.055" cy="30.63" fill="#e5ecf4" data-name="Ellipse 102" rx="9.055" ry="30.63" transform="rotate(-64.601 24.394 -2.638)"/><ellipse cx="9.01" cy="30.479" fill="#e4ebf4" data-name="Ellipse 103" rx="9.01" ry="30.479" transform="rotate(-64.601 24.49 -2.75)"/><ellipse cx="8.966" cy="30.328" fill="#e3ebf4" data-name="Ellipse 104" rx="8.966" ry="30.328" transform="rotate(-64.601 24.588 -2.86)"/><ellipse cx="8.921" cy="30.177" fill="#e2eaf3" data-name="Ellipse 105" rx="8.921" ry="30.177" transform="rotate(-64.601 24.685 -2.971)"/><ellipse cx="8.877" cy="30.026" fill="#e2eaf3" data-name="Ellipse 106" rx="8.877" ry="30.026" transform="rotate(-64.601 24.782 -3.081)"/><ellipse cx="8.832" cy="29.875" fill="#e1e9f3" data-name="Ellipse 107" rx="8.832" ry="29.875" transform="rotate(-64.601 24.879 -3.193)"/><ellipse cx="8.787" cy="29.724" fill="#e0e8f2" data-name="Ellipse 108" rx="8.787" ry="29.724" transform="rotate(-64.59 24.986 -3.307)"/><ellipse cx="8.743" cy="29.573" fill="#dfe8f2" data-name="Ellipse 109" rx="8.743" ry="29.573" transform="rotate(-64.59 25.084 -3.418)"/><path fill="#dfe7f2" d="M74.446 38.106c-2.061 4.34-15.63 2.207-30.31-4.762S19.231 17.207 21.289 12.865s15.63-2.207 30.309 4.762 24.908 16.138 22.848 20.479z" data-name="Path 462"/><ellipse cx="8.654" cy="29.272" fill="#dee7f1" data-name="Ellipse 110" rx="8.654" ry="29.272" transform="rotate(-64.59 25.278 -3.64)"/><path fill="#dde6f1" d="M74.173 37.977c-2.039 4.3-15.47 2.185-30-4.713S19.52 17.292 21.56 12.996s15.47-2.185 30 4.714 24.652 15.972 22.613 20.267z" data-name="Path 463"/><ellipse cx="8.564" cy="28.97" fill="#dce6f1" data-name="Ellipse 111" rx="8.564" ry="28.97" transform="rotate(-64.601 25.46 -3.857)"/><ellipse cx="8.52" cy="28.819" fill="#dce5f0" data-name="Ellipse 112" rx="8.52" ry="28.819" transform="rotate(-64.601 25.558 -3.968)"/><ellipse cx="8.475" cy="28.668" fill="#dbe4f0" data-name="Ellipse 113" rx="8.475" ry="28.668" transform="rotate(-64.601 25.655 -4.078)"/><path fill="#dae4f0" d="M73.629 37.718c-2 4.206-15.15 2.14-29.377-4.616S20.11 17.461 22.107 13.255s15.15-2.139 29.377 4.616 24.142 15.641 22.145 19.847z" data-name="Path 464"/><ellipse cx="8.386" cy="28.366" fill="#d9e3ef" data-name="Ellipse 114" rx="8.386" ry="28.366" transform="rotate(-64.601 25.849 -4.3)"/><path fill="#d8e3ef" d="M73.355 37.588c-1.975 4.161-14.989 2.117-29.065-4.567S20.403 17.545 22.379 13.384s14.989-2.116 29.066 4.568 23.887 15.475 21.91 19.636z" data-name="Path 465"/><ellipse cx="8.297" cy="28.065" fill="#d7e2ef" data-name="Ellipse 115" rx="8.297" ry="28.065" transform="rotate(-64.601 26.043 -4.521)"/><ellipse cx="8.252" cy="27.914" fill="#d7e1ee" data-name="Ellipse 116" rx="8.252" ry="27.914" transform="rotate(-64.59 26.151 -4.637)"/><ellipse cx="8.207" cy="27.763" fill="#d6e1ee" data-name="Ellipse 117" rx="8.207" ry="27.763" transform="rotate(-64.601 26.238 -4.743)"/><ellipse cx="8.163" cy="27.612" fill="#d5e0ee" data-name="Ellipse 118" rx="8.163" ry="27.612" transform="rotate(-64.601 26.334 -4.853)"/><path fill="#d4e0ed" d="M72.674 37.262c-1.923 4.051-14.589 2.06-28.289-4.444S21.137 17.756 23.06 13.705s14.589-2.06 28.289 4.445 23.248 15.065 21.325 19.112z" data-name="Path 466"/><ellipse cx="8.074" cy="27.31" fill="#d3dfed" data-name="Ellipse 119" rx="8.074" ry="27.31" transform="rotate(-64.601 26.528 -5.075)"/><ellipse cx="8.029" cy="27.159" fill="#d2deed" data-name="Ellipse 120" rx="8.029" ry="27.159" transform="rotate(-64.601 26.626 -5.185)"/><path fill="#d2deec" d="M72.266 37.069c-1.892 3.984-14.348 2.026-27.822-4.371s-22.865-14.814-20.974-18.8 14.348-2.026 27.823 4.372 22.864 14.817 20.973 18.799z" data-name="Path 467"/><ellipse cx="7.94" cy="26.857" fill="#d1ddec" data-name="Ellipse 121" rx="7.94" ry="26.857" transform="rotate(-64.59 26.83 -5.412)"/><path fill="#d0dcec" d="M71.993 36.941c-1.87 3.939-14.188 2-27.512-4.323S21.872 17.97 23.742 14.031s14.187-2 27.512 4.323 22.61 14.653 20.739 18.587z" data-name="Path 468"/><path fill="#cfdceb" d="M71.857 36.876c-1.86 3.917-14.108 1.993-27.356-4.3S22.019 18.011 23.879 14.094s14.108-1.992 27.357 4.3 22.48 14.566 20.621 18.482z" data-name="Path 469"/><ellipse cx="7.806" cy="26.405" fill="#cedbeb" data-name="Ellipse 122" rx="7.806" ry="26.405" transform="rotate(-64.59 27.123 -5.745)"/><ellipse cx="7.761" cy="26.254" fill="#cddbeb" data-name="Ellipse 123" rx="7.761" ry="26.254" transform="rotate(-64.601 27.207 -5.85)"/><path fill="#ccdaea" d="M71.448 36.683c-1.828 3.85-13.867 1.958-26.89-4.225s-22.1-14.317-20.27-18.167 13.867-1.958 26.889 4.225 22.099 14.316 20.271 18.167z" data-name="Path 470"/><ellipse cx="7.672" cy="25.952" fill="#ccd9ea" data-name="Ellipse 124" rx="7.672" ry="25.952" transform="rotate(-64.601 27.402 -6.071)"/><ellipse cx="7.628" cy="25.801" fill="#cbd9e9" data-name="Ellipse 125" rx="7.628" ry="25.801" transform="rotate(-64.601 27.498 -6.182)"/><ellipse cx="7.583" cy="25.65" fill="#cad8e9" data-name="Ellipse 126" rx="7.583" ry="25.65" transform="rotate(-64.59 27.608 -6.299)"/><ellipse cx="7.538" cy="25.5" fill="#c9d7e9" data-name="Ellipse 127" rx="7.538" ry="25.5" transform="rotate(-64.59 27.704 -6.41)"/><path fill="#c8d7e8" d="M70.766 36.36c-1.776 3.738-13.466 1.9-26.113-4.1s-21.459-13.9-19.684-17.641 13.466-1.9 26.113 4.1S72.541 32.621 70.766 36.36z" data-name="Path 471"/><ellipse cx="7.449" cy="25.198" fill="#c7d6e8" data-name="Ellipse 128" rx="7.449" ry="25.198" transform="rotate(-64.601 27.887 -6.625)"/><ellipse cx="7.405" cy="25.047" fill="#c6d5e8" data-name="Ellipse 129" rx="7.405" ry="25.047" transform="rotate(-64.601 27.983 -6.735)"/><ellipse cx="7.36" cy="24.896" fill="#c5d5e7" data-name="Ellipse 130" rx="7.36" ry="24.896" transform="rotate(-64.601 28.081 -6.846)"/><path fill="#c4d4e7" d="M70.22 36.105c-1.733 3.649-13.146 1.857-25.491-4.005S23.781 18.528 25.514 14.878s13.145-1.857 25.491 4.005S71.953 32.451 70.22 36.105z" data-name="Path 472"/><ellipse cx="7.271" cy="24.594" fill="#c3d3e6" data-name="Ellipse 131" rx="7.271" ry="24.594" transform="rotate(-64.59 28.287 -7.074)"/><path fill="#c2d3e6" d="M69.949 35.971c-1.712 3.605-12.986 1.834-25.181-3.957S24.075 18.608 25.786 15.003s12.985-1.834 25.18 3.956S71.66 32.366 69.949 35.971z" data-name="Path 473"/><ellipse cx="7.182" cy="24.292" fill="#c1d2e6" data-name="Ellipse 132" rx="7.182" ry="24.292" transform="rotate(-64.59 28.481 -7.296)"/><path fill="#c1d1e5" d="M69.674 35.842c-1.69 3.561-12.825 1.811-24.869-3.908s-20.437-13.241-18.747-16.8 12.825-1.811 24.869 3.908 20.439 13.239 18.747 16.8z" data-name="Path 474"/><ellipse cx="7.092" cy="23.991" fill="#c0d1e5" data-name="Ellipse 133" rx="7.092" ry="23.991" transform="rotate(-64.601 28.662 -7.51)"/><ellipse cx="7.048" cy="23.84" fill="#bfd0e5" data-name="Ellipse 134" rx="7.048" ry="23.84" transform="rotate(-64.59 28.772 -7.628)"/><ellipse cx="7.003" cy="23.689" fill="#becfe4" data-name="Ellipse 135" rx="7.003" ry="23.689" transform="rotate(-64.601 28.857 -7.732)"/><ellipse cx="6.959" cy="23.538" fill="#bdcee4" data-name="Ellipse 136" rx="6.959" ry="23.538" transform="rotate(-64.601 28.954 -7.843)"/><ellipse cx="6.914" cy="23.387" fill="#bccee3" data-name="Ellipse 137" rx="6.914" ry="23.387" transform="rotate(-64.59 29.063 -7.96)"/><path fill="#bbcde3" d="M68.857 35.453c-1.627 3.427-12.344 1.743-23.937-3.761S25.249 18.947 26.876 15.52s12.344-1.744 23.937 3.76 19.671 12.746 18.044 16.173z" data-name="Path 475"/><ellipse cx="6.825" cy="23.085" fill="#bacce3" data-name="Ellipse 138" rx="6.825" ry="23.085" transform="rotate(-64.59 29.257 -8.182)"/><ellipse cx="6.78" cy="22.934" fill="#b9cce2" data-name="Ellipse 139" rx="6.78" ry="22.934" transform="rotate(-64.601 29.342 -8.286)"/><path fill="#b8cbe2" d="M68.449 35.259c-1.6 3.36-12.1 1.71-23.47-3.688s-19.288-12.5-17.693-15.856 12.1-1.71 23.47 3.687 19.289 12.5 17.693 15.857z" data-name="Path 476"/><ellipse cx="6.691" cy="22.633" fill="#b7cae1" data-name="Ellipse 140" rx="6.691" ry="22.633" transform="rotate(-64.59 29.548 -8.514)"/><path fill="#b6c9e1" d="M68.177 35.13c-1.574 3.316-11.943 1.687-23.16-3.639S25.985 19.16 27.559 15.84s11.943-1.687 23.159 3.639S69.751 31.814 68.177 35.13z" data-name="Path 477"/><ellipse cx="6.602" cy="22.331" fill="#b5c9e1" data-name="Ellipse 141" rx="6.602" ry="22.331" transform="rotate(-64.59 29.743 -8.735)"/><ellipse cx="6.557" cy="22.18" fill="#b4c8e0" data-name="Ellipse 142" rx="6.557" ry="22.18" transform="rotate(-64.601 29.828 -8.84)"/><ellipse cx="6.512" cy="22.029" fill="#b3c7e0" data-name="Ellipse 143" rx="6.512" ry="22.029" transform="rotate(-64.601 29.924 -8.95)"/><path fill="#b2c7df" d="M67.635 34.871c-1.532 3.227-11.622 1.641-22.537-3.541s-18.522-12-16.99-15.226 11.623-1.641 22.538 3.541 18.517 11.999 16.989 15.226z" data-name="Path 478"/><ellipse cx="6.423" cy="21.727" fill="#b1c6df" data-name="Ellipse 144" rx="6.423" ry="21.727" transform="rotate(-64.601 30.119 -9.171)"/><ellipse cx="6.379" cy="21.576" fill="#b0c5de" data-name="Ellipse 145" rx="6.379" ry="21.576" transform="rotate(-64.59 30.228 -9.29)"/><ellipse cx="6.334" cy="21.426" fill="#afc4de" data-name="Ellipse 146" rx="6.334" ry="21.426" transform="rotate(-64.601 30.313 -9.393)"/><ellipse cx="6.289" cy="21.275" fill="#aec4de" data-name="Ellipse 147" rx="6.289" ry="21.275" transform="rotate(-64.601 30.41 -9.503)"/><path fill="#adc3dd" d="M66.949 34.547c-1.479 3.115-11.222 1.584-21.761-3.419s-17.883-11.586-16.4-14.7 11.221-1.585 21.76 3.419 17.88 11.585 16.401 14.7z" data-name="Path 479"/><path fill="#acc2dd" d="M66.813 34.482c-1.468 3.093-11.142 1.573-21.605-3.395s-17.755-11.5-16.287-14.6 11.142-1.574 21.605 3.394 17.756 11.508 16.287 14.601z" data-name="Path 480"/><ellipse cx="6.156" cy="20.822" fill="#abc1dc" data-name="Ellipse 148" rx="6.156" ry="20.822" transform="rotate(-64.601 30.7 -9.836)"/><ellipse cx="6.111" cy="20.671" fill="#aac1dc" data-name="Ellipse 149" rx="6.111" ry="20.671" transform="rotate(-64.59 30.81 -9.954)"/><ellipse cx="6.066" cy="20.52" fill="#a9c0dc" data-name="Ellipse 150" rx="6.066" ry="20.52" transform="rotate(-64.601 30.894 -10.057)"/><ellipse cx="6.022" cy="20.369" fill="#a8bfdb" data-name="Ellipse 151" rx="6.022" ry="20.369" transform="rotate(-64.601 30.992 -10.168)"/><path fill="#a7bedb" d="M66.132 34.158c-1.416 2.982-10.741 1.517-20.828-3.273s-17.117-11.09-15.7-14.072 10.741-1.517 20.828 3.273 17.116 11.089 15.7 14.072z" data-name="Path 481"/><ellipse cx="5.933" cy="20.068" fill="#a6beda" data-name="Ellipse 152" rx="5.933" ry="20.068" transform="rotate(-64.601 31.186 -10.39)"/><path fill="#a5bdda" d="M65.859 34.029c-1.394 2.938-10.58 1.494-20.517-3.224S28.481 19.882 29.876 16.944s10.581-1.494 20.517 3.223 16.861 10.924 15.466 13.862z" data-name="Path 482"/><ellipse cx="5.843" cy="19.766" fill="#a4bcd9" data-name="Ellipse 153" rx="5.843" ry="19.766" transform="rotate(-64.601 31.38 -10.611)"/><ellipse cx="5.799" cy="19.615" fill="#a3bbd9" data-name="Ellipse 154" rx="5.799" ry="19.615" transform="rotate(-64.601 31.477 -10.721)"/><path fill="#a1bad8" d="M65.449 33.836c-1.362 2.871-10.34 1.46-20.051-3.151S28.92 20.01 30.283 17.139s10.34-1.461 20.051 3.15 16.479 10.676 15.115 13.547z" data-name="Path 483"/><path fill="#a0bad8" d="M65.314 33.771c-1.353 2.848-10.26 1.449-19.9-3.126s-16.35-10.594-15-13.442 10.26-1.449 19.895 3.126 16.357 10.593 15.005 13.442z" data-name="Path 484"/><ellipse cx="5.665" cy="19.162" fill="#9fb9d8" data-name="Ellipse 155" rx="5.665" ry="19.162" transform="rotate(-64.601 31.768 -11.053)"/><path fill="#9eb8d7" d="M65.041 33.642c-1.331 2.8-10.1 1.426-19.584-3.078S29.363 20.137 30.694 17.328s10.1-1.426 19.585 3.077 16.094 10.433 14.762 13.237z" data-name="Path 485"/><ellipse cx="5.576" cy="18.861" fill="#9db7d7" data-name="Ellipse 156" rx="5.576" ry="18.861" transform="rotate(-64.601 31.962 -11.275)"/><path fill="#9cb6d6" d="M64.769 33.512c-1.31 2.759-9.939 1.4-19.273-3.029s-15.84-10.262-14.535-13.017 9.94-1.4 19.274 3.029 15.844 10.257 14.534 13.017z" data-name="Path 486"/><path fill="#9bb6d6" d="M64.632 33.447c-1.3 2.737-9.859 1.392-19.118-3s-15.709-10.183-14.409-12.92 9.859-1.392 19.118 3 15.709 10.183 14.409 12.92z" data-name="Path 487"/><path fill="#9ab5d5" d="M64.496 33.383c-1.289 2.715-9.779 1.381-18.963-2.98S29.949 20.304 31.239 17.592s9.779-1.381 18.963 2.98 15.583 10.096 14.294 12.811z" data-name="Path 488"/><ellipse cx="5.397" cy="18.257" fill="#99b4d5" data-name="Ellipse 157" rx="5.397" ry="18.257" transform="rotate(-64.601 32.35 -11.718)"/><path fill="#98b3d4" d="M64.223 33.253c-1.268 2.67-9.619 1.358-18.652-2.931s-15.328-9.931-14.06-12.6 9.619-1.358 18.652 2.931 15.328 9.929 14.06 12.6z" data-name="Path 489"/><ellipse cx="5.308" cy="17.955" fill="#97b2d4" data-name="Ellipse 158" rx="5.308" ry="17.955" transform="rotate(-64.59 32.557 -11.949)"/><path fill="#96b2d4" d="M63.95 33.124c-1.247 2.625-9.459 1.335-18.341-2.882s-15.073-9.765-13.826-12.391 9.459-1.336 18.341 2.881 15.073 9.765 13.826 12.392z" data-name="Path 490"/><path fill="#94b1d3" d="M63.814 33.059c-1.236 2.6-9.378 1.324-18.185-2.858S30.684 20.518 31.92 17.915s9.378-1.325 18.186 2.857 14.945 9.683 13.708 12.287z" data-name="Path 491"/><ellipse cx="5.174" cy="17.503" fill="#93b0d3" data-name="Ellipse 159" rx="5.174" ry="17.503" transform="rotate(-64.601 32.836 -12.271)"/><path fill="#92afd2" d="M63.542 32.929c-1.215 2.559-9.218 1.3-17.875-2.809s-14.69-9.517-13.475-12.076 9.218-1.3 17.875 2.808 14.691 9.518 13.475 12.077z" data-name="Path 492"/><ellipse cx="5.085" cy="17.201" fill="#91aed2" data-name="Ellipse 160" rx="5.085" ry="17.201" transform="rotate(-64.601 33.03 -12.493)"/><ellipse cx="5.04" cy="17.05" fill="#90aed1" data-name="Ellipse 161" rx="5.04" ry="17.05" transform="rotate(-64.601 33.126 -12.603)"/><ellipse cx="4.996" cy="16.899" fill="#8fadd1" data-name="Ellipse 162" rx="4.996" ry="16.899" transform="rotate(-64.601 33.223 -12.715)"/><ellipse cx="4.951" cy="16.748" fill="#8eacd0" data-name="Ellipse 163" rx="4.951" ry="16.748" transform="rotate(-64.601 33.32 -12.825)"/><path fill="#8dabd0" d="M62.861 32.606c-1.163 2.448-8.817 1.245-17.1-2.687s-14.051-9.1-12.888-11.551 8.817-1.245 17.1 2.687 14.05 9.102 12.888 11.551z" data-name="Path 493"/><ellipse cx="4.862" cy="16.446" fill="#8caacf" data-name="Ellipse 164" rx="4.862" ry="16.446" transform="rotate(-64.601 33.515 -13.046)"/><ellipse cx="4.817" cy="16.296" fill="#8aa9cf" data-name="Ellipse 165" rx="4.817" ry="16.296" transform="rotate(-64.59 33.626 -13.167)"/><path fill="#89a9cf" d="M62.452 32.411c-1.131 2.382-8.577 1.212-16.632-2.613s-13.668-8.859-12.537-11.236 8.577-1.211 16.631 2.613 13.668 8.855 12.538 11.236z" data-name="Path 494"/><path fill="#88a8ce" d="M62.315 32.346c-1.12 2.359-8.5 1.2-16.476-2.588s-13.54-8.772-12.42-11.131 8.5-1.2 16.476 2.588 13.54 8.772 12.42 11.131z" data-name="Path 495"/><ellipse cx="4.684" cy="15.843" fill="#87a7ce" data-name="Ellipse 166" rx="4.684" ry="15.843" transform="rotate(-64.601 33.903 -13.49)"/><ellipse cx="4.639" cy="15.692" fill="#86a6cd" data-name="Ellipse 167" rx="4.639" ry="15.692" transform="rotate(-64.601 34 -13.6)"/><path fill="#85a5cd" d="M61.906 32.152c-1.089 2.293-8.256 1.166-16.009-2.515S32.74 21.113 33.829 18.821s8.256-1.166 16.009 2.515 13.156 8.524 12.068 10.816z" data-name="Path 496"/><path fill="#84a4cc" d="M61.77 32.084c-1.077 2.271-8.176 1.155-15.854-2.491s-13.028-8.441-11.951-10.711 8.176-1.155 15.854 2.491 13.029 8.445 11.951 10.711z" data-name="Path 497"/><ellipse cx="4.505" cy="15.239" fill="#82a4cc" data-name="Ellipse 168" rx="4.505" ry="15.239" transform="rotate(-64.601 34.291 -13.933)"/><path fill="#81a3cb" d="M61.498 31.958c-1.057 2.225-8.016 1.131-15.544-2.443s-12.773-8.275-11.716-10.5 8.015-1.132 15.543 2.442 12.774 8.276 11.717 10.501z" data-name="Path 498"/><ellipse cx="4.416" cy="14.938" fill="#80a2cb" data-name="Ellipse 169" rx="4.416" ry="14.938" transform="rotate(-64.601 34.485 -14.153)"/><path fill="#7fa1ca" d="M61.225 31.828c-1.036 2.181-7.856 1.109-15.233-2.393s-12.518-8.11-11.482-10.291 7.855-1.109 15.232 2.394 12.519 8.11 11.483 10.29z" data-name="Path 499"/><path fill="#7ea0ca" d="M61.089 31.764c-1.025 2.159-7.775 1.1-15.077-2.369s-12.39-8.027-11.365-10.186 7.775-1.1 15.076 2.369 12.39 8.027 11.366 10.186z" data-name="Path 500"/><ellipse cx="4.282" cy="14.485" fill="#7d9fc9" data-name="Ellipse 170" rx="4.282" ry="14.485" transform="rotate(-64.601 34.776 -14.486)"/><path fill="#7b9ec9" d="M60.816 31.634c-1 2.114-7.615 1.076-14.766-2.32s-12.135-7.862-11.131-9.976 7.615-1.075 14.766 2.32 12.135 7.863 11.131 9.976z" data-name="Path 501"/><path fill="#7a9ec8" d="M60.683 31.569c-.993 2.092-7.535 1.065-14.611-2.3s-12.007-7.779-11.014-9.871 7.534-1.064 14.611 2.3 12.004 7.78 11.014 9.871z" data-name="Path 502"/><path fill="#799dc8" d="M60.543 31.505c-.983 2.07-7.455 1.053-14.455-2.271s-11.88-7.7-10.9-9.766 7.455-1.052 14.456 2.271 11.883 7.696 10.899 9.766z" data-name="Path 503"/><path fill="#789cc7" d="M60.407 31.44c-.972 2.048-7.375 1.042-14.3-2.246s-11.752-7.614-10.78-9.661 7.374-1.041 14.3 2.247 11.752 7.612 10.78 9.66z" data-name="Path 504"/><ellipse cx="4.059" cy="13.731" fill="#779bc7" data-name="Ellipse 171" rx="4.059" ry="13.731" transform="rotate(-64.601 35.261 -15.04)"/><path fill="#759ac6" d="M60.135 31.313c-.951 2-7.214 1.019-13.989-2.2s-11.5-7.448-10.545-9.451 7.214-1.019 13.989 2.2 11.496 7.451 10.545 9.451z" data-name="Path 505"/><path fill="#7499c6" d="M59.999 31.247c-.941 1.981-7.134 1.008-13.834-2.173s-11.369-7.366-10.428-9.346 7.134-1.008 13.833 2.174 11.369 7.364 10.429 9.345z" data-name="Path 506"/><ellipse cx="3.925" cy="13.278" fill="#7398c5" data-name="Ellipse 172" rx="3.925" ry="13.278" transform="rotate(-64.601 35.552 -15.372)"/><path fill="#7297c5" d="M59.726 31.12c-.919 1.936-6.973.985-13.523-2.124s-11.113-7.2-10.194-9.136 6.974-.985 13.523 2.125 11.113 7.196 10.194 9.135z" data-name="Path 507"/><path fill="#7197c4" d="M59.589 31.052c-.908 1.914-6.893.974-13.367-2.1s-10.985-7.118-10.077-9.031 6.894-.974 13.367 2.1 10.986 7.118 10.077 9.031z" data-name="Path 508"/><path fill="#6f96c4" d="M59.453 30.988c-.9 1.892-6.813.962-13.212-2.076s-10.857-7.034-9.959-8.926 6.813-.962 13.212 2.076 10.857 7.034 9.959 8.926z" data-name="Path 509"/><path fill="#6e95c3" d="M59.316 30.927c-.887 1.87-6.733.951-13.056-2.051s-10.73-6.952-9.843-8.821 6.734-.951 13.057 2.052 10.73 6.947 9.842 8.82z" data-name="Path 510"/><path fill="#6d94c3" d="M59.18 30.858c-.877 1.847-6.652.94-12.9-2.027s-10.6-6.869-9.725-8.716 6.653-.939 12.9 2.027 10.602 6.869 9.725 8.716z" data-name="Path 511"/><path fill="#6c93c2" d="M59.044 30.793c-.867 1.825-6.573.929-12.745-2s-10.475-6.786-9.608-8.611 6.573-.928 12.745 2 10.476 6.783 9.608 8.611z" data-name="Path 512"/><path fill="#6b92c2" d="M58.907 30.729c-.855 1.8-6.492.917-12.59-1.978s-10.346-6.7-9.491-8.506 6.493-.917 12.59 1.978 10.348 6.703 9.491 8.506z" data-name="Path 513"/><ellipse cx="3.568" cy="12.071" fill="#6991c1" data-name="Ellipse 173" rx="3.568" ry="12.071" transform="rotate(-64.59 36.343 -16.269)"/><path fill="#6890c1" d="M58.635 30.599c-.835 1.759-6.332.895-12.28-1.929s-10.091-6.538-9.256-8.3 6.332-.894 12.279 1.929 10.092 6.542 9.257 8.3z" data-name="Path 514"/><path fill="#678fc0" d="M58.499 30.534c-.824 1.736-6.252.883-12.124-1.9s-9.963-6.456-9.139-8.191 6.252-.883 12.124 1.905 9.963 6.451 9.139 8.186z" data-name="Path 515"/><path fill="#668fc0" d="M58.363 30.47c-.814 1.714-6.172.872-11.968-1.88s-9.835-6.372-9.022-8.086 6.172-.872 11.968 1.881 9.836 6.372 9.022 8.085z" data-name="Path 516"/><path fill="#648ebf" d="M58.227 30.405c-.8 1.692-6.092.86-11.813-1.856s-9.708-6.289-8.9-7.981 6.091-.86 11.812 1.856 9.704 6.29 8.901 7.981z" data-name="Path 517"/><ellipse cx="3.345" cy="11.316" fill="#638dbf" data-name="Ellipse 174" rx="3.345" ry="11.316" transform="rotate(-64.601 36.814 -16.811)"/><path fill="#628cbe" d="M57.954 30.275c-.782 1.647-5.931.838-11.5-1.807s-9.453-6.124-8.671-7.771 5.931-.838 11.5 1.808 9.453 6.123 8.671 7.77z" data-name="Path 518"/><path fill="#618bbe" d="M57.818 30.211c-.772 1.625-5.852.826-11.347-1.783s-9.325-6.041-8.553-7.666 5.851-.826 11.347 1.783 9.324 6.041 8.553 7.666z" data-name="Path 519"/><path fill="#5f8abd" d="M57.681 30.146c-.761 1.6-5.771.815-11.191-1.759s-9.2-5.958-8.437-7.561 5.771-.815 11.192 1.759 9.197 5.959 8.436 7.561z" data-name="Path 520"/><ellipse cx="3.167" cy="10.713" fill="#5e89bd" data-name="Ellipse 175" rx="3.167" ry="10.713" transform="rotate(-64.59 37.217 -17.266)"/><path fill="#5d88bc" d="M57.409 30.017c-.74 1.558-5.611.793-10.881-1.71s-8.941-5.793-8.2-7.351 5.611-.792 10.88 1.71 8.94 5.793 8.201 7.351z" data-name="Path 521"/><path fill="#5c87bc" d="M57.272 29.952c-.729 1.536-5.531.781-10.725-1.685s-8.814-5.71-8.085-7.246 5.531-.781 10.725 1.685 8.814 5.711 8.085 7.246z" data-name="Path 522"/><path fill="#5a86bb" d="M57.135 29.887c-.718 1.513-5.45.77-10.569-1.66s-8.686-5.628-7.967-7.141 5.451-.769 10.569 1.661 8.686 5.627 7.967 7.14z" data-name="Path 523"/><path fill="#5985bb" d="M56.999 29.822c-.708 1.491-5.37.759-10.414-1.636s-8.558-5.545-7.85-7.036 5.37-.758 10.414 1.636 8.558 5.546 7.85 7.036z" data-name="Path 524"/><path fill="#5884ba" d="M56.863 29.758c-.7 1.469-5.29.747-10.259-1.612s-8.43-5.461-7.733-6.931 5.291-.747 10.259 1.612 8.43 5.462 7.733 6.931z" data-name="Path 525"/><path fill="#5784ba" d="M56.726 29.693c-.686 1.446-5.21.736-10.1-1.587s-8.3-5.38-7.616-6.826 5.21-.735 10.1 1.588 8.303 5.378 7.616 6.825z" data-name="Path 526"/><path fill="#5583b9" d="M56.59 29.628c-.676 1.424-5.13.725-9.948-1.563s-8.175-5.3-7.5-6.721 5.13-.724 9.948 1.563 8.177 5.3 7.5 6.721z" data-name="Path 527"/><path fill="#5482b9" d="M56.45 29.563c-.666 1.4-5.05.713-9.792-1.539s-8.048-5.213-7.382-6.616 5.05-.713 9.793 1.539 8.051 5.215 7.381 6.616z" data-name="Path 528"/><path fill="#5381b8" d="M56.318 29.499c-.655 1.38-4.969.7-9.636-1.514s-7.92-5.131-7.265-6.511 4.97-.7 9.637 1.515 7.92 5.13 7.264 6.51z" data-name="Path 529"/><path fill="#5280b8" d="M56.182 29.434c-.645 1.358-4.89.69-9.481-1.49s-7.792-5.048-7.147-6.406 4.89-.69 9.481 1.49 7.791 5.048 7.147 6.406z" data-name="Path 530"/><path fill="#507fb7" d="M56.045 29.369c-.634 1.335-4.809.679-9.326-1.465s-7.664-4.966-7.03-6.3 4.81-.679 9.326 1.466 7.667 4.964 7.03 6.299z" data-name="Path 531"/><path fill="#4f7eb7" d="M55.909 29.304c-.623 1.313-4.729.668-9.171-1.441s-7.536-4.883-6.913-6.2 4.729-.668 9.171 1.441 7.536 4.888 6.913 6.2z" data-name="Path 532"/><path fill="#4e7db6" d="M55.77 29.24c-.613 1.291-4.649.656-9.016-1.417s-7.408-4.8-6.8-6.091 4.649-.656 9.015 1.417 7.416 4.8 6.801 6.091z" data-name="Path 533"/><path fill="#4c7cb5" d="M55.636 29.175c-.6 1.269-4.569.645-8.86-1.392s-7.281-4.718-6.679-5.986 4.569-.645 8.86 1.392 7.282 4.717 6.679 5.986z" data-name="Path 534"/><path fill="#4b7bb5" d="M55.5 29.11c-.592 1.247-4.489.634-8.7-1.367s-7.153-4.634-6.561-5.881 4.489-.634 8.7 1.368 7.152 4.634 6.561 5.88z" data-name="Path 535"/><path fill="#4a7ab4" d="M55.364 29.045c-.582 1.224-4.409.623-8.549-1.343s-7.025-4.551-6.444-5.776 4.408-.622 8.548 1.343 7.026 4.553 6.445 5.776z" data-name="Path 536"/><path fill="#4979b4" d="M55.227 28.982c-.57 1.2-4.329.612-8.393-1.318s-6.9-4.469-6.328-5.671 4.329-.611 8.394 1.319 6.897 4.468 6.327 5.67z" data-name="Path 537"/><path fill="#4778b3" d="M55.09 28.916c-.56 1.18-4.248.6-8.238-1.294s-6.77-4.386-6.21-5.566 4.248-.6 8.238 1.295 6.771 4.385 6.21 5.565z" data-name="Path 538"/><path fill="#4677b3" d="M54.955 28.852c-.55 1.157-4.169.589-8.083-1.27s-6.643-4.3-6.093-5.461 4.168-.588 8.083 1.27 6.642 4.304 6.093 5.461z" data-name="Path 539"/><path fill="#4576b2" d="M54.819 28.787c-.539 1.135-4.088.577-7.927-1.245s-6.515-4.221-5.976-5.356 4.088-.577 7.928 1.246 6.514 4.221 5.975 5.355z" data-name="Path 540"/><path fill="#4375b2" d="M54.682 28.723c-.528 1.113-4.008.566-7.772-1.221s-6.387-4.138-5.858-5.251 4.008-.565 7.772 1.222 6.387 4.137 5.858 5.25z" data-name="Path 541"/><path fill="#4274b1" d="M54.547 28.658c-.518 1.091-3.928.555-7.617-1.2s-6.259-4.055-5.741-5.146 3.927-.555 7.616 1.2 6.262 4.056 5.742 5.146z" data-name="Path 542"/><path fill="#4173b1" d="M54.411 28.593c-.507 1.068-3.848.543-7.461-1.172s-6.131-3.972-5.624-5.041 3.848-.543 7.461 1.173 6.13 3.972 5.624 5.04z" data-name="Path 543"/><path fill="#3f72b0" d="M54.273 28.529c-.5 1.046-3.767.532-7.305-1.148s-6-3.89-5.507-4.936 3.768-.532 7.305 1.148 6.004 3.888 5.507 4.936z" data-name="Path 544"/><ellipse cx="2.052" cy="6.941" fill="#3e72b0" data-name="Ellipse 176" rx="2.052" ry="6.941" transform="rotate(-64.601 39.627 -20.022)"/><path fill="#3d71af" d="M54.001 28.399c-.476 1-3.607.509-6.995-1.1s-5.748-3.724-5.273-4.726 3.608-.509 6.995 1.1 5.748 3.725 5.273 4.726z" data-name="Path 545"/><path fill="#3b70ae" d="M53.864 28.334c-.465.979-3.526.5-6.839-1.074s-5.621-3.642-5.156-4.621 3.527-.5 6.84 1.074 5.62 3.642 5.155 4.621z" data-name="Path 546"/><path fill="#3a6fae" d="M53.731 28.27c-.454.957-3.447.486-6.684-1.05s-5.493-3.558-5.038-4.516 3.447-.486 6.684 1.05 5.49 3.558 5.038 4.516z" data-name="Path 547"/><path fill="#396ead" d="M53.592 28.205c-.444.934-3.366.476-6.528-1.025s-5.365-3.476-4.921-4.411 3.366-.475 6.528 1.026 5.365 3.475 4.921 4.41z" data-name="Path 548"/><path fill="#376dad" d="M53.455 28.14c-.433.912-3.286.464-6.372-1s-5.237-3.393-4.8-4.306 3.287-.464 6.373 1 5.232 3.394 4.799 4.306z" data-name="Path 549"/><path fill="#366cac" d="M53.319 28.075c-.423.89-3.206.453-6.217-.977s-5.11-3.31-4.687-4.2 3.206-.452 6.217.977 5.11 3.31 4.687 4.2z" data-name="Path 550"/><path fill="#356bac" d="M53.183 28.011c-.412.868-3.126.442-6.062-.952s-4.981-3.228-4.569-4.1 3.126-.441 6.062.953 4.98 3.23 4.569 4.099z" data-name="Path 551"/><path fill="#336aab" d="M53.047 27.946c-.4.846-3.046.43-5.907-.928s-4.853-3.145-4.452-3.991 3.046-.43 5.907.928 4.857 3.147 4.452 3.991z" data-name="Path 552"/><path fill="#3269ab" d="M52.911 27.881c-.391.823-2.966.419-5.752-.9s-4.726-3.062-4.335-3.886 2.965-.419 5.751.9 4.727 3.063 4.336 3.886z" data-name="Path 553"/><path fill="#3168aa" d="M52.775 27.816c-.38.8-2.886.407-5.6-.879s-4.6-2.98-4.218-3.78 2.885-.408 5.6.879 4.598 2.979 4.218 3.78z" data-name="Path 554"/><path fill="#2f67aa" d="M52.638 27.752c-.37.779-2.805.4-5.44-.855s-4.471-2.9-4.1-3.675 2.805-.4 5.44.854 4.47 2.897 4.1 3.676z" data-name="Path 555"/><ellipse cx="1.517" cy="5.13" fill="#2e66a9" data-name="Ellipse 177" rx="1.517" ry="5.13" transform="rotate(-64.601 40.792 -21.351)"/><path fill="#2d65a8" d="M52.365 27.622c-.348.735-2.645.373-5.129-.806s-4.215-2.731-3.866-3.465 2.645-.374 5.129.806 4.215 2.731 3.866 3.465z" data-name="Path 556"/><path fill="#2b64a8" d="M52.229 27.557c-.338.712-2.565.362-4.974-.782s-4.087-2.648-3.75-3.361 2.565-.362 4.974.782 4.088 2.65 3.75 3.361z" data-name="Path 557"/><path fill="#2a63a7" d="M52.093 27.493c-.328.69-2.485.351-4.819-.757s-3.96-2.565-3.632-3.255 2.485-.351 4.819.757 3.959 2.565 3.632 3.255z" data-name="Path 558"/><path fill="#2962a7" d="M51.956 27.428c-.317.668-2.4.34-4.663-.732s-3.832-2.483-3.515-3.15 2.4-.34 4.663.732 3.832 2.482 3.515 3.15z" data-name="Path 559"/><path fill="#2761a6" d="M51.82 27.363c-.306.646-2.325.329-4.508-.708s-3.7-2.4-3.4-3.045 2.325-.329 4.508.708 3.706 2.4 3.4 3.045z" data-name="Path 560"/><path fill="#2660a6" d="M51.684 27.299c-.3.623-2.245.317-4.353-.684s-3.576-2.317-3.28-2.94 2.244-.316 4.352.684 3.577 2.317 3.281 2.94z" data-name="Path 561"/><path fill="#255fa5" d="M51.547 27.234c-.285.6-2.165.306-4.2-.659s-3.449-2.234-3.163-2.836 2.164-.305 4.2.66 3.452 2.234 3.163 2.835z" data-name="Path 562"/><path fill="#235ea4" d="M51.411 27.169c-.275.579-2.084.294-4.041-.635s-3.321-2.152-3.046-2.73 2.084-.294 4.041.635 3.322 2.151 3.046 2.73z" data-name="Path 563"/><path fill="#225da4" d="M51.276 27.104c-.265.556-2 .283-3.886-.611s-3.194-2.069-2.929-2.625 2-.283 3.886.61 3.192 2.07 2.929 2.626z" data-name="Path 564"/><path fill="#205ca3" d="M51.139 27.04c-.254.534-1.924.272-3.731-.586s-3.066-1.986-2.812-2.52 1.924-.272 3.73.586 3.066 1.986 2.813 2.52z" data-name="Path 565"/><path fill="#1f5ba3" d="M51.002 26.975c-.243.512-1.843.26-3.575-.562s-2.938-1.9-2.7-2.415 1.844-.261 3.575.562 2.944 1.903 2.7 2.415z" data-name="Path 566"/><path fill="#1e5aa2" d="M50.866 26.906c-.232.489-1.763.249-3.419-.538s-2.81-1.82-2.578-2.31 1.764-.25 3.42.537 2.809 1.825 2.577 2.311z" data-name="Path 567"/><ellipse cx=".937" cy="3.169" fill="#1c59a2" data-name="Ellipse 178" rx=".937" ry="3.169" transform="rotate(-64.601 42.054 -22.79)"/><path fill="#1b58a1" d="M50.593 26.781c-.211.445-1.6.226-3.108-.489s-2.555-1.655-2.344-2.1 1.6-.227 3.109.489 2.554 1.655 2.343 2.1z" data-name="Path 568"/><path fill="#1957a0" d="M50.457 26.713c-.2.423-1.522.215-2.953-.464s-2.427-1.572-2.227-1.995 1.523-.215 2.953.464 2.428 1.575 2.227 1.995z" data-name="Path 569"/><path fill="#1856a0" d="M50.321 26.651c-.191.4-1.443.2-2.8-.439s-2.3-1.49-2.108-1.89 1.443-.2 2.8.439 2.298 1.49 2.108 1.89z" data-name="Path 570"/><path fill="#17559f" d="M50.184 26.587c-.179.378-1.363.193-2.643-.415s-2.171-1.407-1.992-1.785 1.363-.193 2.643.415 2.172 1.406 1.992 1.785z" data-name="Path 571"/><path fill="#15549f" d="M50.047 26.52c-.169.356-1.282.181-2.487-.391s-2.044-1.324-1.875-1.68 1.282-.181 2.487.39 2.049 1.327 1.875 1.681z" data-name="Path 572"/><path fill="#14539e" d="M49.912 26.457c-.159.333-1.2.17-2.332-.366s-1.916-1.242-1.757-1.575 1.2-.17 2.331.366 1.916 1.241 1.758 1.575z" data-name="Path 573"/><path fill="#12529e" d="M49.776 26.392c-.148.311-1.122.159-2.176-.342s-1.788-1.158-1.641-1.47 1.122-.159 2.176.342 1.789 1.159 1.641 1.47z" data-name="Path 574"/><path fill="#11519d" d="M49.639 26.327c-.137.289-1.042.147-2.02-.318s-1.66-1.075-1.523-1.365 1.042-.147 2.02.317 1.661 1.077 1.523 1.366z" data-name="Path 575"/><path fill="#104f9c" d="M49.503 26.263c-.127.267-.962.136-1.865-.293s-1.533-.993-1.406-1.26.961-.136 1.865.293 1.533.993 1.406 1.26z" data-name="Path 576"/><path fill="#0e4e9c" d="M49.367 26.199c-.116.245-.882.124-1.71-.269s-1.405-.91-1.289-1.155.882-.124 1.71.268 1.405.911 1.289 1.156z" data-name="Path 577"/><path fill="#0d4d9b" d="M49.23 26.134c-.105.223-.8.113-1.554-.245s-1.278-.827-1.172-1.05.8-.113 1.555.244 1.277.828 1.171 1.051z" data-name="Path 578"/><path fill="#0b4c9b" d="M49.094 26.07c-.1.2-.722.1-1.4-.22s-1.15-.745-1.055-.945.721-.1 1.4.22 1.15.744 1.055.945z" data-name="Path 579"/><path fill="#0a4b9a" d="M48.958 26.005c-.085.178-.641.09-1.244-.2s-1.022-.662-.937-.84.641-.091 1.244.195 1.021.666.937.845z" data-name="Path 580"/><path fill="#094a9a" d="M48.818 25.942c-.074.156-.561.079-1.088-.171s-.894-.579-.82-.735.561-.08 1.088.171.897.577.82.735z" data-name="Path 581"/><path fill="#074999" d="M48.685 25.875c-.063.134-.481.068-.933-.146s-.766-.5-.7-.63.481-.068.932.146.765.497.701.63z" data-name="Path 582"/><path fill="#064898" d="M48.548 25.811c-.053.111-.4.056-.777-.122s-.639-.414-.586-.525.4-.057.777.122.644.413.586.525z" data-name="Path 583"/><path fill="#044798" d="M48.412 25.749c-.042.089-.32.045-.622-.1s-.511-.331-.469-.42.321-.046.622.1.507.328.469.42z" data-name="Path 584"/><path fill="#034697" d="M48.276 25.681c-.032.067-.24.033-.466-.073s-.383-.248-.351-.315.24-.034.466.073.382.252.351.315z" data-name="Path 585"/><path fill="#014597" d="M48.139 25.616c-.021.044-.16.023-.311-.049s-.255-.166-.235-.21.161-.023.311.048.258.167.235.211z" data-name="Path 586"/><path fill="#004496" d="M48.004 25.556c-.01.022-.08.011-.155-.025s-.128-.082-.117-.1.08-.011.156.024.126.074.116.101z" data-name="Path 587"/></g></g></g><g data-name="Group 579"><path fill="#fff" d="m158.393 56.463-76.692 44.279a5.782 5.782 0 0 1-5.2.215l-46.959-27.11c-1.334-.769-1.166-2.115.373-3l76.692-44.278a5.782 5.782 0 0 1 5.2-.215l46.956 27.11c1.336.766 1.171 2.108-.37 2.999z" data-name="Path 589" opacity=".4"/><path fill="#041860" d="m150.354 57.364-67.1 38.737a5.059 5.059 0 0 1-4.552.189l-41.08-23.718c-1.167-.674-1.02-1.85.327-2.628l67.094-38.737a5.057 5.057 0 0 1 4.552-.188l41.081 23.718c1.172.672 1.028 1.849-.322 2.627z" data-name="Path 590" opacity=".2"/><path fill="#fff" d="M78.758 101.743a4.878 4.878 0 0 1-2.394-.551L29.406 74.08a1.812 1.812 0 0 1-1.036-1.54 2.407 2.407 0 0 1 1.41-1.934l76.691-44.278a6.087 6.087 0 0 1 5.474-.215l46.956 27.11a1.812 1.812 0 0 1 1.037 1.54 2.407 2.407 0 0 1-1.409 1.934L81.837 100.98a6.326 6.326 0 0 1-3.079.763zm30.793-75.646a5.772 5.772 0 0 0-2.808.7L30.051 71.08a1.9 1.9 0 0 0-1.138 1.464 1.3 1.3 0 0 0 .764 1.071l46.956 27.11a5.5 5.5 0 0 0 4.932-.215l76.692-44.278a1.9 1.9 0 0 0 1.137-1.464 1.3 1.3 0 0 0-.764-1.07L111.674 26.58a4.339 4.339 0 0 0-2.124-.483z" data-name="Path 591"/><path fill="#fff" d="m159.666 43.525-.851.673c-.017-.011-.031-.022-.049-.032L111.81 17.055a5.782 5.782 0 0 0-5.2.216L29.916 61.548a3.78 3.78 0 0 0-.482.329l-.791-.581v1.923a1.528 1.528 0 0 0 .9 1.335l46.956 27.111a5.782 5.782 0 0 0 5.2-.216l76.692-44.278a2.135 2.135 0 0 0 1.271-1.7z" data-name="Path 592"/><path fill="#84e4a4" d="M158.393 45.222 81.701 89.5a5.782 5.782 0 0 1-5.2.215l-46.956-27.11c-1.334-.77-1.166-2.115.373-3l76.692-44.278a5.782 5.782 0 0 1 5.2-.215l46.956 27.111c1.333.765 1.168 2.11-.373 2.999z" data-name="Path 593"/><g fill="#fff" data-name="Group 577"><path d="m97.851 36.51-6.6-3.809 1.615-.932a5.287 5.287 0 0 1 .88-.413 3.672 3.672 0 0 1 .876-.193 2.74 2.74 0 0 1 .922.071 3.474 3.474 0 0 1 .939.391q1.217.707.395 1.348a2.989 2.989 0 0 1 1.385-.208 3.525 3.525 0 0 1 1.416.479c.629.361.949.725.956 1.1s-.288.728-.893 1.078zm-2.7-2.95.373-.215c.353-.2.519-.388.5-.552s-.207-.349-.565-.555a2.094 2.094 0 0 0-.517-.223 1.148 1.148 0 0 0-.481-.023 1.977 1.977 0 0 0-.461.132 5.142 5.142 0 0 0-.53.275l-.166.1zm3.059 1.766.441-.255c.358-.206.522-.4.494-.574s-.236-.375-.621-.6a2.442 2.442 0 0 0-1.1-.365 1.946 1.946 0 0 0-1.051.3l-.378.218z" data-name="Path 594"/><path d="m102.025 34.101-5.256-4.582 1.253-.724 7.933 3.037-1.118.645-1.8-.73-1.141.658 1.262 1.041zm-.784-2.221.883-.51-3.152-1.309z" data-name="Path 595"/><path d="m106.603 31.458-6.6-3.808.827-.478 5.351 1.225-3.736-2.157 1-.575 6.6 3.808-.787.455-5.559-1.326 3.927 2.267z" data-name="Path 596"/><path d="m111.028 28.903-6.6-3.808 1.2-.694 2.864 1.654-1.567-2.4 1.146-.661 1.692 2.433 5.035 1.3-1.2.691-4.241-1.135.191.386 2.674 1.544z" data-name="Path 597"/></g><g fill="#fff" data-name="Group 578"><path d="m90.709 73.233-14.7 8.487-1.7-.982 14.7-8.487z" data-name="Path 598"/><path d="m108.778 62.8-14.7 8.487-1.7-.982 14.7-8.487z" data-name="Path 599"/><path d="m126.846 52.368-14.7 8.487-1.7-.982 14.7-8.487z" data-name="Path 600"/><path d="m144.915 41.936-14.7 8.487-1.7-.982 14.7-8.487z" data-name="Path 601"/></g></g><g data-name="Group 587"><g data-name="Group 582"><path fill="#fff" d="m156.774 100.781-23.591-13.735c-4.673-2.7-9.08-3.125-12.41-1.2s-5.162 5.953-5.162 11.349v1.729c.166.113.341.223.52.332v-2.061c0-5.2 1.742-9.072 4.9-10.9s7.384-1.4 11.89 1.2l23.591 13.735a.26.26 0 1 0 .26-.45z" data-name="Path 602"/><path fill="#fff" d="M83.206 84.418V31.255c0-10.641-7.5-23.628-16.714-28.948-4.513-2.606-8.771-3.019-11.987-1.163s-4.987 5.749-4.987 10.962v3.706l.521.521v-4.227c0-5.018 1.679-8.751 4.727-10.511S61.887.248 66.233 2.757c9.073 5.238 16.454 18.022 16.454 28.5V84.42c0 8.821 5.19 19.26 12.228 25.542v-.7c-6.761-6.212-11.709-16.296-11.709-24.844z" data-name="Path 603"/><g data-name="Group 580"><path fill="#fff" d="M94.965 109.738s-6.006-6.118-8.344-11.16a34.348 34.348 0 0 1-3.59-13.873c-.041-4.161-.082-39.946-.082-39.946s.257-14.837-.367-17.178-2.095-14.839-14.335-23.815-18.352.708-18.28 5.767 0 8.3 0 8.3 6.706 5.427 9.236 13.179 2.774 6.406 2.815 14.118.082 46.828.082 46.828-.567 6.869 1.142 12.186 4.785 11.21 8.432 15.07 9.031 8.419 14.009 7.97 8.324-2.286 9.283-10.16z" data-name="Path 604"/><path fill="#fff" d="M54.508 1.144 33.875 13.037l16.091 4.792z" data-name="Path 605"/><path fill="#84e4a4" d="M115.612 98.919v2.386c-1.148-.831-6.544-4.518-11.67-4.337a8.8 8.8 0 0 0-7.711 5.488s-1.367 3.945-1.265 5.794c.018.319.033.7.046 1.1-.032-.03-.065-.056-.1-.085v.7c.039.035.08.067.119.1.047 1.78.062 3.737.062 3.737a32.5 32.5 0 0 1-.449 5.835c-.9 4.162-4.422 6.525-4.693 6.894l21.17-12.189c.018-.01.039-.017.058-.028s.055-.036.085-.053l.107-.062.012-.014c3.062-1.889 4.748-5.692 4.748-10.754v-4.177c-.177-.112-.352-.222-.519-.335z" data-name="Path 606"/><path fill="#fff" d="m99.116 98.376 21.658-12.536a10.788 10.788 0 0 1 8.16-.306c4.467 1.635 27.871 15.676 27.871 15.676l-20.909 12.046s-24.3-15.052-27.146-15.807c-5.852-1.55-9.634.927-9.634.927z" data-name="Path 607"/></g><path fill="#84e4a4" d="M49.518 17.436a20.874 20.874 0 0 0-10.65-5.21c-6.583-1.007-9.3 6.692-9.3 6.692a42.5 42.5 0 0 0-.735 6.365c.027 2.367.2 10.961.2 10.961l20.868-12.021a.259.259 0 0 0 .144-.229v-6.1c-.18-.178-.354-.281-.527-.458z" data-name="Path 608"/><g data-name="Group 581"><path fill="#84e4a4" d="M85.885 127.473a15.217 15.217 0 0 1-7.483-2.29c-9.149-5.282-16.592-18.175-16.592-28.739V43.281c0-10.475-7.381-23.261-16.455-28.5-4.346-2.508-8.417-2.921-11.466-1.161s-4.727 5.493-4.727 10.511v11.885a.26.26 0 1 1-.52 0V24.131c0-5.212 1.771-9.1 4.987-10.961s7.473-1.444 11.987 1.161c9.218 5.321 16.718 18.308 16.718 28.95v53.163c0 10.4 7.327 23.089 16.333 28.289 4.313 2.49 8.355 2.9 11.381 1.153s4.691-5.452 4.691-10.432v-6.238c0-5.4 1.833-9.427 5.163-11.349s7.736-1.495 12.41 1.2l23.59 13.736a.26.26 0 1 1-.26.45l-23.59-13.736c-4.506-2.6-8.729-3.029-11.89-1.2s-4.9 5.7-4.9 10.9v6.238c0 5.174-1.759 9.039-4.952 10.883a8.729 8.729 0 0 1-4.425 1.135z" data-name="Path 609"/></g></g><g fill="#dde1ed" data-name="Group 586"><g data-name="Group 583"><path d="M67.42 54.957V53.08l2.189-1.264v1.877z" data-name="Path 610"/><path d="M73.599 47.881v-1.877l4.17-2.407v1.877z" data-name="Path 611"/><path d="M67.633 47.49v-1.876l10.136-5.852v1.877z" data-name="Path 612"/><path d="M71.155 52.801v-1.877l8.46-4.885v1.877z" data-name="Path 613"/><path d="M67.633 51.326v-1.877l4.17-2.407v1.877z" data-name="Path 614"/></g><g data-name="Group 584"><path d="M70.088 73.222v1.877l-2.566 1.482v-1.877z" data-name="Path 615"/><path d="M74.76 70.518v1.877l-2.566 1.482V72z" data-name="Path 616"/><path d="M77.561 65.393v1.877l-9.918 5.726v-1.877z" data-name="Path 617"/><path d="M72.61 59.457V57.58l4.951-2.859v1.877z" data-name="Path 618"/><path d="M67.521 62.394v-1.877l2.566-1.482v1.877z" data-name="Path 619"/><path d="M67.521 65.902v-1.877l4.888-2.822v1.877z" data-name="Path 620"/><path d="M74.38 61.944v-1.877l3.181-1.836v1.88z" data-name="Path 621"/><path d="M72.61 81.311v-1.877l4.951-2.859v1.877z" data-name="Path 622"/><path d="M67.521 84.249v-1.877l2.566-1.482v1.877z" data-name="Path 623"/><path d="M67.521 87.758v-1.877l4.888-2.822v1.877z" data-name="Path 624"/><path d="M74.38 83.797V81.92l3.181-1.836v1.877z" data-name="Path 625"/></g><g data-name="Group 585"><path d="m126.361 101.333-1.625-.938 2.189-1.264 1.625.938z" data-name="Path 626"/><path d="m129.501 96.012-1.625-.938 4.17-2.407 1.625.938z" data-name="Path 627"/><path d="m120.214 97.538-1.625-.938 10.136-5.852 1.625.938z" data-name="Path 628"/><path d="m130.096 99.177-1.625-.938 8.46-4.884 1.625.938z" data-name="Path 629"/><path d="m123.535 99.457-1.625-.938 4.17-2.407 1.625.938z" data-name="Path 630"/></g></g></g><g fill="#fff" data-name="Group 588"><path d="m15.522 105.595-.95.548-2.249-1.3.95-.548z" data-name="Path 631"/><path d="m17.271 104.589-.95.548-2.249-1.3.95-.548z" data-name="Path 632"/><path d="m19.02 103.58-.95.548-2.249-1.3.95-.548z" data-name="Path 633"/><path d="m20.77 102.57-.95.548-2.249-1.3.95-.548z" data-name="Path 634"/></g><g data-name="Group 590"><path fill="#fff" d="m144.24 135.01-16.735-9.654a3.268 3.268 0 0 0-1.431-.391h-.481c-.1.007-.2.021-.3.037-.043.007-.087.011-.129.02a2.773 2.773 0 0 0-.284.077c-.036.011-.075.018-.11.031a2.195 2.195 0 0 0-.348.159l-12.486 7.233-11.906 6.9-1.159.116.009 1.043.011.133a1.258 1.258 0 0 0 .681.826l16.747 9.66a3.292 3.292 0 0 0 1.431.391h.348c.046 0 .09 0 .134-.005.1-.007.2-.021.3-.037.043-.007.087-.011.129-.02a2.691 2.691 0 0 0 .282-.076c.037-.011.076-.019.112-.032a2.2 2.2 0 0 0 .348-.159l24.971-14.467a.982.982 0 0 0 .575-.841v-1.017z" data-name="Path 635"/><g data-name="Group 589"><path fill="url(#a)" d="m164.143 268.78 12.486-7.233 19.408 11.193-11.943 7.546a3.41 3.41 0 0 1-3.083-.065l-16.747-9.659c-.885-.51-.938-1.308-.121-1.782z" data-name="Path 636" transform="translate(-64.695 -130.053)"/><path fill="url(#e)" d="m194.423 251.238-12.486 7.233 19.285 11.123 13.15-6.851c.818-.474.764-1.271-.119-1.781l-16.748-9.662a3.408 3.408 0 0 0-3.082-.062z" data-name="Path 637" transform="translate(-70.003 -126.977)"/><path fill="url(#f)" d="M217.3 266.211a.936.936 0 0 1-.567.955l-24.971 14.468a3.047 3.047 0 0 1-1.652.329l1.655-14.762z" data-name="Path 638" transform="translate(-72.365 -131.4)"/><path fill="url(#g)" d="M163.577 266.66a.938.938 0 0 1 .567-.955l24.972-14.467a3.039 3.039 0 0 1 1.652-.33l-1.655 14.762z" data-name="Path 639" transform="translate(-64.696 -126.978)"/></g><path fill="#fff" d="M117.927 144.258h-.145l-.305-.026a3.371 3.371 0 0 1-1.3-.4l-16.748-9.66a1.685 1.685 0 0 1-.737-.767h-.038l-.048-.289v-.043a1.442 1.442 0 0 1 .014-.3 1.149 1.149 0 0 1 .083-.228.737.737 0 0 1 .048-.1 1.262 1.262 0 0 1 .164-.208.75.75 0 0 1 .07-.078 1.8 1.8 0 0 1 .324-.238l24.971-14.468a2.574 2.574 0 0 1 .393-.179l.088-.027c.136-.041.236-.07.343-.092l.1-.015a4.96 4.96 0 0 1 .361-.047h.1c.149-.006.258-.007.366 0l.307.027a3.4 3.4 0 0 1 1.295.4l16.748 9.66a1.685 1.685 0 0 1 .737.767h.038l.048.289v.043a.734.734 0 0 1 0 .2 1 1 0 0 1-.012.107 1.066 1.066 0 0 1-.085.231.622.622 0 0 1-.045.1 1.231 1.231 0 0 1-.165.208l-.069.078a1.8 1.8 0 0 1-.324.238l-24.971 14.468a2.558 2.558 0 0 1-.393.179l-.088.027c-.137.04-.236.07-.343.092l-.1.015a4.96 4.96 0 0 1-.361.047h-.105c-.079-.012-.15-.011-.216-.011zm.555-.585.175.249-.055-.266c.089-.018.172-.043.255-.069l.193.226-.092-.255a1.965 1.965 0 0 0 .3-.138l24.973-14.468a1.291 1.291 0 0 0 .225-.166l.24.135-.2-.184a.891.891 0 0 0 .1-.119 1.047 1.047 0 0 0 .064-.164.946.946 0 0 0 .006-.144l-.006-.032a1.012 1.012 0 0 0-.548-.638l-16.748-9.66a3.031 3.031 0 0 0-1.311-.355l-.107-.006h-.346a2.73 2.73 0 0 0-.266.035l-.175-.249.055.266a2.598 2.598 0 0 0-.256.069l-.193-.226.092.255a1.93 1.93 0 0 0-.305.139l-24.971 14.468a1.286 1.286 0 0 0-.226.166 1.555 1.555 0 0 0-.139.168 1.09 1.09 0 0 0-.065.164 1.011 1.011 0 0 0-.006.144l.006.032a1.014 1.014 0 0 0 .548.638l16.748 9.66a3.031 3.031 0 0 0 1.311.355l.107.006h.346c.093-.006.182-.019.27-.035z" data-name="Path 640"/><path fill="#fff" d="M144.701 128.923a1.026 1.026 0 0 0 .132-.164c.014-.024.021-.05.033-.075a.791.791 0 0 0 .064-.171c0-.026 0-.052.008-.078a.764.764 0 0 0 0-.176v-.027h-.006a1.258 1.258 0 0 0-.68-.826l-16.751-9.658a3.283 3.283 0 0 0-1.431-.391h-.482c-.1.008-.2.022-.294.038-.043.006-.088.011-.131.019a2.905 2.905 0 0 0-.281.076c-.037.011-.077.02-.112.033a2.107 2.107 0 0 0-.348.159l-8.324 4.822-4.162 2.411-12.486 7.233a1.53 1.53 0 0 0-.274.2c-.022.021-.036.043-.055.064a1.024 1.024 0 0 0-.132.164.632.632 0 0 0-.033.075.79.79 0 0 0-.064.171.7.7 0 0 0-.008.078.764.764 0 0 0 0 .176v.027h.006a1.261 1.261 0 0 0 .681.826l16.747 9.659a3.293 3.293 0 0 0 1.431.391h.482c.1-.008.2-.022.294-.038.043-.006.087-.011.13-.019a2.861 2.861 0 0 0 .282-.076c.037-.011.077-.02.112-.033a2.166 2.166 0 0 0 .346-.158l24.974-14.462a1.482 1.482 0 0 0 .274-.2c.023-.027.036-.05.058-.07z" data-name="Path 641" opacity=".4"/></g></svg>