<?xml version="1.0" standalone="no"?>
<!DOCTYPE svg PUBLIC "-//W3C//DTD SVG 20010904//EN"
 "http://www.w3.org/TR/2001/REC-SVG-20010904/DTD/svg10.dtd">
<svg version="1.0" xmlns="http://www.w3.org/2000/svg"
 width="693.000000pt" height="360.000000pt" viewBox="0 0 693.000000 360.000000"
 preserveAspectRatio="xMidYMid meet">

<g transform="translate(0.000000,360.000000) scale(0.100000,-0.100000)"
fill="#000000" stroke="none">
<path d="M3391 3404 c-17 -14 -35 -42 -41 -62 -8 -25 -10 -289 -8 -825 2 -433
1 -787 -2 -787 -6 0 -25 106 -131 710 -147 841 -155 879 -179 905 -69 73 -191
39 -206 -56 -3 -19 4 -86 15 -149 11 -63 43 -243 70 -400 28 -157 55 -307 60
-335 6 -27 24 -131 41 -230 17 -99 40 -229 51 -290 33 -178 37 -207 28 -198
-4 4 -98 258 -209 563 -111 305 -219 605 -242 665 -22 61 -51 142 -65 180 -45
123 -74 155 -144 155 -61 0 -119 -57 -119 -115 0 -15 124 -367 275 -783 151
-415 274 -757 272 -759 -2 -2 -44 65 -92 149 -161 278 -267 461 -360 623 -50
88 -117 203 -147 255 -30 52 -90 156 -132 230 -43 74 -88 143 -99 152 -79 62
-206 -5 -194 -103 3 -20 37 -92 79 -165 41 -71 119 -205 173 -299 54 -93 131
-226 170 -295 80 -139 138 -240 272 -470 104 -180 115 -200 109 -200 -3 0 -51
55 -108 123 -56 67 -219 262 -363 432 -143 171 -319 380 -390 465 -179 215
-184 219 -226 230 -44 12 -91 -3 -124 -40 -30 -34 -28 -116 5 -157 14 -17 126
-151 250 -298 124 -147 277 -329 340 -405 63 -75 183 -217 265 -316 154 -183
185 -223 149 -193 -10 9 -149 126 -309 259 -159 133 -301 252 -315 264 -14 12
-65 55 -115 96 -49 41 -92 77 -95 80 -12 13 -368 308 -390 323 -68 47 -166 2
-177 -80 -11 -81 -53 -40 637 -618 92 -77 269 -225 393 -329 125 -105 225
-191 223 -193 -2 -2 -160 87 -352 198 -192 111 -439 253 -549 317 -563 325
-536 313 -603 272 -45 -28 -68 -82 -53 -130 13 -44 38 -68 116 -110 33 -18 76
-43 95 -55 19 -12 55 -33 80 -47 25 -14 106 -60 180 -103 74 -43 207 -120 295
-170 88 -51 201 -116 250 -144 50 -29 158 -91 240 -138 83 -47 157 -92 165
-100 8 -8 -28 1 -80 20 -52 19 -393 143 -757 276 -365 132 -677 241 -694 241
-61 0 -119 -58 -119 -120 0 -26 22 -70 46 -91 11 -9 358 -139 772 -290 414
-151 748 -275 743 -277 -11 -4 -423 68 -1236 214 -305 55 -362 61 -392 44 -42
-24 -65 -63 -65 -110 1 -51 23 -88 65 -105 18 -7 154 -34 302 -60 785 -137
942 -164 1200 -212 l100 -18 -815 -5 c-624 -4 -820 -8 -837 -17 -58 -34 -79
-103 -48 -163 33 -64 -31 -60 972 -60 568 0 921 4 937 10 65 24 85 133 35 186
l-24 26 20 16 c58 47 72 118 34 166 -12 15 -20 28 -18 30 2 1 16 7 31 14 15 6
35 23 45 39 20 31 23 104 4 127 -10 12 -6 16 22 25 59 20 82 54 82 122 -1 58
0 59 28 59 62 0 118 75 103 136 -6 24 -5 25 22 19 60 -13 132 42 132 100 l0
32 59 -1 c50 -1 63 3 85 23 14 14 31 39 37 56 l12 32 41 -15 c36 -13 45 -13
79 1 22 10 45 30 58 51 l20 35 40 -21 c53 -28 102 -18 145 28 25 29 33 32 38
19 9 -24 74 -48 112 -41 17 4 44 16 59 28 l28 22 17 -21 c20 -25 72 -53 97
-53 10 0 36 9 58 20 21 11 39 19 39 17 9 -31 40 -66 71 -81 36 -18 42 -18 81
-4 l41 15 12 -32 c6 -17 23 -42 37 -56 22 -20 35 -24 85 -23 l59 1 0 -32 c0
-58 72 -113 133 -99 28 6 29 5 22 -25 -13 -61 44 -131 107 -131 22 0 24 -4 23
-59 0 -68 23 -102 80 -121 l32 -11 -15 -43 c-15 -40 -14 -45 4 -80 15 -30 44
-55 82 -72 2 -1 -6 -17 -17 -35 -35 -58 -23 -114 34 -161 l20 -16 -23 -25
c-31 -33 -39 -94 -18 -135 34 -65 -18 -62 992 -62 l917 0 33 36 c27 28 34 44
34 74 0 50 -16 85 -49 107 -24 17 -84 18 -846 23 l-820 5 100 18 c288 53 699
125 1200 212 149 25 284 52 302 60 44 19 66 57 66 112 0 40 -4 50 -36 80 -28
25 -46 33 -74 33 -46 0 -1 7 -768 -129 -528 -95 -807 -142 -816 -139 -8 3
1302 484 1457 536 88 29 128 116 85 185 -23 38 -57 57 -101 57 -16 0 -346
-115 -732 -256 -830 -302 -815 -297 -803 -285 6 5 150 90 320 189 517 298 644
372 780 450 72 42 165 95 207 119 134 76 161 144 90 224 -21 24 -38 32 -72 36
-48 5 -43 7 -490 -252 -74 -43 -178 -103 -230 -133 -52 -30 -238 -138 -414
-239 -175 -101 -320 -183 -322 -181 -2 2 42 42 98 88 56 47 233 195 394 330
160 135 393 330 518 435 246 207 264 229 245 298 -21 76 -116 112 -180 69 -14
-9 -175 -143 -359 -297 -954 -801 -887 -745 -874 -724 5 9 147 180 316 380
635 755 710 845 719 867 37 95 -47 188 -145 161 -29 -8 -83 -67 -326 -357
-161 -191 -311 -369 -335 -397 -23 -27 -79 -95 -125 -150 -178 -212 -292 -345
-296 -345 -6 0 6 23 66 125 26 44 91 157 145 250 54 94 123 213 153 265 452
781 445 767 439 812 -11 79 -86 123 -160 94 -23 -9 -49 -26 -56 -38 -18 -28
-82 -137 -206 -353 -50 -88 -127 -221 -170 -295 -43 -74 -111 -191 -150 -260
-39 -69 -107 -186 -150 -260 -43 -74 -90 -154 -103 -178 -13 -24 -26 -41 -28
-39 -3 2 16 58 40 123 193 518 506 1394 506 1417 0 65 -54 117 -120 117 -37 0
-81 -23 -99 -52 -7 -11 -133 -353 -282 -760 -148 -408 -271 -744 -274 -746 -9
-10 -5 33 16 143 11 61 31 173 44 250 13 77 40 228 59 335 19 107 44 247 55
310 11 63 27 156 36 205 66 371 65 361 30 404 -34 40 -84 56 -130 41 -59 -20
-78 -53 -98 -175 -10 -61 -29 -168 -42 -240 -14 -71 -38 -211 -55 -310 -17
-99 -35 -202 -40 -230 -14 -74 -34 -185 -76 -420 -20 -115 -40 -226 -44 -245
-4 -19 -8 324 -9 763 -1 865 0 841 -56 885 -40 32 -104 30 -144 -4z"/>
</g>
</svg>
