<?xml version="1.0" standalone="no"?>
<!DOCTYPE svg PUBLIC "-//W3C//DTD SVG 20010904//EN"
 "http://www.w3.org/TR/2001/REC-SVG-20010904/DTD/svg10.dtd">
<svg version="1.0" xmlns="http://www.w3.org/2000/svg"
 width="626.000000pt" height="626.000000pt" viewBox="0 0 626.000000 626.000000"
 preserveAspectRatio="xMidYMid meet">

<g transform="translate(0.000000,626.000000) scale(0.100000,-0.100000)"
fill="#1c64f2" stroke="#1c64f2">
<path d="M2915 5085 c-352 -48 -643 -179 -912 -408 -283 -241 -478 -578 -560
-966 -25 -114 -27 -146 -27 -341 0 -195 2 -227 27 -342 68 -321 221 -615 438
-842 93 -97 100 -108 87 -124 -8 -9 -29 -57 -46 -107 -17 -49 -70 -195 -117
-324 -47 -128 -85 -245 -85 -258 0 -59 52 -115 155 -166 354 -175 1150 -251
1805 -171 414 50 702 136 806 240 55 55 62 91 34 170 -12 32 -34 95 -50 139
-15 44 -58 160 -94 258 -36 98 -66 184 -66 190 0 6 -7 19 -16 29 -16 17 -12
23 69 107 365 379 539 901 472 1418 -41 315 -164 610 -356 856 -50 63 -186
204 -254 262 -173 147 -434 280 -667 341 -182 47 -464 64 -643 39z m454 -41
c192 -28 319 -68 506 -158 173 -84 284 -165 441 -321 199 -199 333 -417 417
-680 63 -195 72 -263 72 -515 -1 -195 -4 -239 -23 -329 -62 -281 -185 -539
-361 -755 -91 -111 -238 -244 -299 -272 -130 -58 -331 -106 -577 -140 -164
-22 -635 -26 -795 -6 -247 31 -505 96 -635 159 -66 33 -269 239 -353 357 -157
224 -264 490 -304 761 -15 103 -14 346 1 455 38 263 149 543 299 754 74 104
234 271 336 350 236 183 532 307 824 345 112 14 337 12 451 -5z m-1326 -3024
c73 -58 344 -142 557 -174 347 -51 759 -50 1080 5 259 44 483 115 552 176 21
19 34 11 43 -24 7 -29 138 -392 181 -500 25 -65 31 -94 15 -78 -11 11 -140
359 -173 465 -11 36 -22 67 -24 69 -9 9 -176 -83 -191 -105 -21 -33 -15 -56
72 -305 42 -118 75 -228 75 -249 0 -80 -46 -105 -271 -150 -460 -92 -1076 -99
-1544 -19 -223 37 -260 52 -291 111 -22 42 -18 63 37 213 76 208 109 312 109
339 0 38 -30 63 -114 95 -44 17 -97 42 -119 57 -21 14 -40 24 -41 22 -3 -3
-31 -78 -141 -378 -54 -145 -75 -191 -75 -162 0 9 169 474 197 542 3 8 5 19 4
23 -2 12 18 47 28 47 5 0 20 -9 34 -20z"/>
<path d="M3740 2515 c-36 -8 -111 -37 -166 -65 l-102 -50 -67 31 c-104 47
-204 69 -314 69 -119 0 -182 -16 -316 -79 l-104 -49 -38 19 c-103 51 -264 71
-389 48 -128 -23 -267 -97 -219 -115 9 -4 23 0 33 9 27 23 152 65 229 75 101
14 206 0 308 -41 l84 -35 108 55 c186 93 329 105 512 44 108 -36 163 -63 255
-125 38 -25 72 -43 77 -40 21 13 5 35 -51 69 -46 28 -58 40 -50 50 17 20 131
73 195 90 75 19 211 19 295 -1 78 -18 198 -75 252 -121 44 -36 71 -43 66 -15
-2 9 -35 38 -73 64 -162 109 -351 150 -525 113z"/>
</g>
</svg>
